<svg width="22" height="21" viewBox="0 0 22 21" fill="none" xmlns="http://www.w3.org/2000/svg">
<path fill-rule="evenodd" clip-rule="evenodd" d="M9.12097 1.33362H18.068C19.0343 1.33362 19.9578 1.72389 20.6362 2.41325C21.314 3.10205 21.692 4.0329 21.692 5.0002V20.6664H3.29187V7.25727L9.12097 1.33362ZM9.95884 3.33362L5.29187 8.07628V18.6664H19.692V5.0002C19.692 4.55305 19.517 4.12739 19.2106 3.81604C18.9048 3.50523 18.4934 3.33362 18.068 3.33362H9.95884Z" fill="#242C35"/>
<path fill-rule="evenodd" clip-rule="evenodd" d="M2.76533 2.40726C2.22418 2.1323 1.6272 1.99305 1.02385 2.00027L0.0239227 2.01223L0 0.0123714L0.999928 0.000410043C1.92731 -0.0106834 2.84323 0.203471 3.67131 0.624225C4.4993 1.04494 5.21484 1.65966 5.75941 2.41592L6.34377 3.22742L4.72077 4.39612L4.13641 3.58462C3.77697 3.08546 3.30655 2.68226 2.76533 2.40726Z" fill="#242C35"/>
<path d="M16.756 5.00018H12.1639C11.4393 5.00018 10.8519 5.59712 10.8519 6.33347C10.8519 7.06983 11.4393 7.66676 12.1639 7.66676H16.756C17.4806 7.66676 18.068 7.06983 18.068 6.33347C18.068 5.59712 17.4806 5.00018 16.756 5.00018Z" fill="#242C35"/>
</svg>
