<svg fill="none" height="36" viewBox="0 0 111 36" width="111" xmlns="http://www.w3.org/2000/svg"><path d="m110.087 31.1153c0 2.6897-2.173 4.8631-4.863 4.8631h-100.33941c-2.68977.0215-4.8631056-2.1734-4.8631056-4.8631v-26.25219c0-2.68977 2.1733356-4.86311 4.8631056-4.86311h100.33941c2.69 0 4.863 2.17334 4.863 4.86311z" fill="#5f666e"/><g fill="#fff"><path d="m19.0225 6.15381h-8.9516c-1.0759 0-1.93662.86073-1.93662 1.93663v19.86126c0 1.0759.86072 1.9366 1.93662 1.9366h8.9731c1.0759 0 1.9366-.8607 1.9366-1.9366v-19.86126c0-1.0759-.8822-1.93663-1.9581-1.93663zm-4.4758 22.31439c-.7101 0-1.2911-.581-1.2911-1.2911s.581-1.2911 1.2911-1.2911 1.2911.581 1.2911 1.2911-.581 1.2911-1.2911 1.2911zm4.9061-3.2278h-9.81225v-14.6539h9.79075v14.6539z"/><path d="m28.3179 9.68387-.538 1.65693h-.7101l1.786-5.25047h.8177l1.786 5.25047h-.7316l-.5595-1.65693zm1.7214-.51644-.5164-1.50627c-.1076-.34429-.1937-.64555-.2582-.9468h-.0215c-.0646.30125-.1507.62403-.2583.9468l-.5164 1.52779h1.5708z"/><path d="m32.1696 7.57471.7317 2.10878c.1291.34431.2367.66711.3012.96831h.0215c.0861-.3012.1937-.624.3228-.96831l.7316-2.10878h.7101l-1.4847 3.76569h-.6456l-1.4417-3.76569z"/><path d="m38.1516 10.4362c0 .3228.0216.6456.0646.9038h-.624l-.0646-.4734h-.0215c-.1937.3013-.624.5595-1.162.5595-.7531 0-1.162-.538-1.162-1.0759 0-.9038.8177-1.39871 2.2594-1.39871v-.08608c0-.30126-.086-.88225-.8607-.86073-.3658 0-.7316.1076-.9898.27974l-.1507-.45188c.3013-.19367.7747-.32277 1.2481-.32277 1.162 0 1.4417.79617 1.4417 1.54931v1.37712zm-.667-1.03284c-.7532-.02152-1.5924.1076-1.5924.83924 0 .4519.3013.6455.6456.6455.4949 0 .8177-.3012.9253-.624.0215-.0646.0215-.1506.0215-.2152z"/><path d="m39.529 6.88615c-.2582 0-.4304-.19366-.4304-.45188 0-.2367.1722-.43036.4519-.43036.2582 0 .4304.19366.4304.43036s-.1722.45188-.4519.45188zm-.3228 4.45425v-3.76567h.6886v3.76567z"/><path d="m40.9922 5.8103h.6886v5.5302h-.6886z"/><path d="m45.4246 10.4362c0 .3228.0215.6456.0645.9038h-.624l-.0645-.4734h-.0216c-.1936.3013-.624.5595-1.1619.5595-.7532 0-1.162-.538-1.162-1.0759 0-.9038.8177-1.39871 2.2594-1.39871v-.08608c0-.30126-.0861-.88225-.8607-.86073-.3658 0-.7317.1076-.9899.27974l-.1506-.45188c.3012-.19367.7747-.32277 1.248-.32277 1.162 0 1.4418.79617 1.4418 1.54931v1.37712zm-.6671-1.03284c-.7531-.02152-1.5923.1076-1.5923.83924 0 .4519.3012.6455.6455.6455.4949 0 .8177-.3012.9253-.624.0215-.0646.0215-.1506.0215-.2152z"/><path d="m46.4795 5.8103h.6886v2.367h.0215c.2367-.43036.6671-.68858 1.2911-.68858.9253 0 1.5924.77465 1.5924 1.91511 0 1.35567-.8608 2.02267-1.7 2.02267-.5379 0-.9683-.2151-1.2695-.7101h-.0216l-.043.6241h-.581c.0215-.2582.0215-.6456.0215-.9683zm.6886 4.0239c0 .08607 0 .1721.0215.2582.1291.4734.538.7962 1.0329.7962.7316 0 1.1405-.581 1.1405-1.44173 0-.75313-.3874-1.39868-1.119-1.39868-.4734 0-.9037.32277-1.0329.83921-.0215.08607-.043.17215-.043.27974z"/><path d="m50.8691 5.8103h.6886v5.5302h-.6886z"/><path d="m53.0421 9.5768c.0215.9253.6025 1.3126 1.2911 1.3126.4949 0 .7961-.0861 1.0328-.1937l.1291.4734c-.2367.1076-.667.2367-1.2695.2367-1.162 0-1.8506-.7746-1.8506-1.89356 0-1.14046.6671-2.04422 1.786-2.04422 1.2265 0 1.5493 1.07591 1.5493 1.76449 0 .15063 0 .25822-.0215.32277zm2.0012-.49492c0-.43036-.1722-1.11894-.9468-1.11894-.7101 0-.9899.64554-1.0544 1.11894z"/><path d="m59.6698 11.4276c-1.0113 0-1.8075-.7532-1.8075-1.93666 0-1.26957.8392-2.00119 1.8721-2.00119 1.0759 0 1.8075.79617 1.8075 1.93663 0 1.39872-.9683 2.00122-1.8721 2.00122zm.0215-.5165c.6456 0 1.1405-.624 1.1405-1.4632 0-.64554-.3228-1.44172-1.1189-1.44172-.7962 0-1.162.75314-1.162 1.46324 0 .81768.4734 1.44168 1.1404 1.44168z"/><path d="m62.3594 8.58717c0-.38732 0-.7101-.043-1.01135h.6025l.0431.62403h.0215c.1936-.34429.624-.7101 1.248-.7101.5165 0 1.3342.30125 1.3342 1.61386v2.25939h-.6886v-2.17332c0-.60251-.2152-1.11894-.8823-1.11894-.4519 0-.7961.32277-.9253.7101-.0215.08607-.043.21518-.043.32277v2.28089h-.6886v-2.79733z"/><path d="m69.0947 6.67139v.90376h.9899v.51644h-.9899v2.02271c0 .4734.1291.7316.5165.7316.1936 0 .3012-.0215.3873-.043l.0215.5164c-.1291.043-.3443.0861-.6025.0861-.3228 0-.581-.1076-.7316-.2798-.1937-.2151-.2582-.5379-.2582-.9898v-2.06573h-.581v-.51644h.581v-.68858z"/><path d="m70.7944 5.8103h.6886v2.34548h.0215c.1076-.19366.2798-.36581.495-.4734.1936-.12911.4518-.19366.71-.19366.495 0 1.3127.30125 1.3127 1.61386v2.23792h-.6886v-2.17336c0-.62403-.2367-1.11895-.8823-1.11895-.4518 0-.7961.30126-.9252.68858-.0431.08608-.0431.19367-.0431.32278v2.28095h-.6886z"/><path d="m75.4639 9.5768c.0215.9253.6025 1.3126 1.2911 1.3126.4949 0 .7962-.0861 1.0544-.1937l.1291.4734c-.2367.1076-.6671.2367-1.2696.2367-1.162 0-1.8505-.7746-1.8505-1.89356 0-1.14046.667-2.04422 1.7644-2.04422 1.2266 0 1.5494 1.07591 1.5494 1.76449 0 .15063 0 .25822-.0216.32277zm2.0012-.49492c0-.43036-.1722-1.11894-.9468-1.11894-.7101 0-.9898.64554-1.0544 1.11894z"/><path d="m80.8864 6.88615c-.2582 0-.4303-.19366-.4303-.45188 0-.2367.1721-.43036.4518-.43036.2583 0 .4304.19366.4304.43036s-.1721.45188-.4519.45188zm-.3443 4.45425v-3.76567h.6886v3.76567z"/><path d="m82.3496 6.15447c.3228-.06456.7531-.10759 1.2911-.10759.6671 0 1.162.15062 1.4632.43036.2798.25822.4734.62402.4734 1.09742s-.1506.83921-.4088 1.11895c-.3658.38732-.9468.58099-1.6139.58099-.1936 0-.3873 0-.5379-.04304v2.10874h-.6671zm.6886 2.51762c.1506.04303.3443.06456.5595.06456.8177 0 1.3126-.40885 1.3126-1.11895s-.4949-1.03287-1.2481-1.03287c-.3012 0-.5164.02151-.6455.06455v2.02271z"/><path d="m86.396 5.8103h.6886v2.34548h.0215c.1076-.19366.2797-.36581.4949-.4734.1937-.12911.4519-.19366.7101-.19366.5164 0 1.3126.30125 1.3126 1.61386v2.23792h-.6886v-2.17336c0-.62403-.2367-1.11895-.8822-1.11895-.4519 0-.7962.30126-.9253.68858-.043.08608-.043.19367-.043.32278v2.28095h-.6886z"/><path d="m92.205 11.4276c-1.0114 0-1.8075-.7532-1.8075-1.93666 0-1.26957.8392-2.00119 1.872-2.00119 1.076 0 1.8076.79617 1.8076 1.93663.0215 1.39872-.9684 2.00122-1.8721 2.00122zm.0215-.5165c.6456 0 1.1405-.624 1.1405-1.4632 0-.64554-.3228-1.44172-1.119-1.44172-.7961 0-1.162.75314-1.162 1.46324.0216.81768.4734 1.44168 1.1405 1.44168z"/><path d="m94.917 8.58717c0-.38732 0-.7101-.0215-1.01135h.6025l.0431.62403h.0215c.1936-.34429.624-.7101 1.248-.7101.5165 0 1.3342.30125 1.3342 1.61386v2.25939h-.6886v-2.17332c0-.60251-.2367-1.11894-.8823-1.11894-.4519 0-.7961.32277-.9253.7101-.0215.08607-.043.21518-.043.32277v2.28089h-.6886z"/><path d="m99.586 9.5768c.0215.9253.603 1.3126 1.291 1.3126.495 0 .796-.0861 1.033-.1937l.129.4734c-.237.1076-.667.2367-1.269.2367-1.1625 0-1.8511-.7746-1.8511-1.89356 0-1.14046.6671-2.04422 1.7641-2.04422 1.227 0 1.55 1.07591 1.55 1.76449 0 .15063 0 .25822-.022.32277zm2.001-.49492c0-.43036-.172-1.11894-.947-1.11894-.7097 0-.9894.64554-1.054 1.11894z"/><path d="m31.5454 14.8896-4.6265 13.578h2.1088l1.3772-4.1745h4.4758l1.4202 4.1745h2.1733l-4.6264-13.578zm1.0974 2.2379c.1506.6026.3228 1.2266.5379 1.9152l1.2481 3.5935h-3.5505l1.2265-3.6366c.1937-.581.3658-1.205.538-1.8721z"/><path d="m44.4565 18.4182c-1.3987 0-2.5177.538-3.2708 1.5708l-.0861-1.3556h-1.8721l.0216.1721c.0645.8392.086 1.7645.086 3.0987v10.4578h2.0658v-4.8846c.6455.7531 1.6569 1.205 2.8189 1.205 1.205 0 2.3024-.4734 3.1201-1.3341.9038-.9468 1.3772-2.324 1.3772-3.9594 0-1.4417-.4089-2.6898-1.2051-3.615-.7961-.8608-1.872-1.3557-3.0555-1.3557zm-.5165 1.6999c1.8291 0 2.6468 1.7 2.6468 3.3784 0 2.1733-1.0544 3.5075-2.7329 3.5075-1.1404 0-2.1518-.7747-2.4315-1.9152-.043-.1721-.0646-.4088-.0646-.667v-1.6569c0-.1506.0431-.3228.0646-.5165 0-.0645.0215-.1075.0215-.1721.3228-1.1405 1.3341-1.9582 2.4961-1.9582z"/><path d="m55.0434 18.4182c-1.3987 0-2.5177.538-3.2708 1.5708l-.0861-1.3556h-1.872v.1721c.0645.8392.086 1.7645.086 3.0987v10.4578h2.0658v-4.8846c.6455.7531 1.6569 1.205 2.8189 1.205 1.205 0 2.3024-.4734 3.1201-1.3341.9038-.9468 1.3771-2.324 1.3771-3.9594 0-1.4417-.4088-2.6898-1.205-3.615-.7746-.8608-1.8505-1.3557-3.034-1.3557zm-.5165 1.6999c1.8291 0 2.6468 1.7 2.6468 3.3784 0 2.1733-1.0544 3.5075-2.7328 3.5075-1.1405 0-2.1519-.7747-2.4316-1.9152-.043-.1721-.0645-.4088-.0645-.667v-1.6569c0-.1506.043-.3228.0645-.5165 0-.0645.0215-.1075.0215-.1721.3228-1.1405 1.3342-1.9582 2.4961-1.9582z"/><path d="m68.2982 20.6566c-1.9151-.7531-2.5391-1.3341-2.5391-2.41 0-.9038.7316-1.8291 2.3454-1.8291 1.3342 0 2.1949.4734 2.4101.6025l.1721.1076.581-1.7214-.1076-.0646c-.3443-.1936-1.3341-.667-2.991-.667-2.6252 0-4.4543 1.5493-4.4543 3.7656 0 1.786 1.1405 3.0341 3.6151 3.9379 1.7429.6455 2.3885 1.3126 2.3885 2.4746 0 1.291-1.0114 2.1087-2.6037 2.1087-1.0544 0-2.1303-.3012-2.9695-.8392l-.1722-.1076-.5594 1.7645.1076.0646c.7746.5164 2.2379.9037 3.4644.9037 3.529 0 4.777-2.1518 4.777-4.0023 0-1.9582-.9898-3.1202-3.4644-4.0885z"/><path d="m75.464 16.2891-2.0227.624v1.6999h-1.4848v1.6354h1.4848v5.0353c0 1.2265.2367 2.0657.7101 2.6037.4519.4949 1.162.7746 1.9797.7746.7746 0 1.3341-.1506 1.5923-.2367l.1076-.043-.1076-1.6354-.1936.0646c-.2583.086-.5165.1075-.9469.1075-.7961 0-1.1404-.4949-1.1404-1.6784v-4.9707h2.4746v-1.6354h-2.4746v-2.3454z"/><path d="m83.0384 18.4182c-2.8834 0-4.8846 2.1518-4.8846 5.2289 0 2.9911 1.9366 5.0568 4.734 5.0568h.0215c2.3455 0 4.8846-1.6354 4.8846-5.2289 0-1.4633-.4518-2.7113-1.3126-3.6366-.8607-.9468-2.0442-1.4202-3.4429-1.4202zm-.0645 1.6139c1.8505 0 2.6897 1.8075 2.6897 3.4859 0 2.0658-1.1404 3.5505-2.7328 3.5505h-.0215c-1.5493 0-2.6897-1.4632-2.6897-3.5075.0215-1.7429.8607-3.5289 2.7543-3.5289z"/><path d="m94.0774 18.5043-.1291-.0215c-.1721-.0431-.3228-.0646-.5164-.0646-1.0759 0-2.0443.624-2.5822 1.6569l-.0646-1.4417h-1.8505l.0215.1721c.0645.8177.0861 1.7215.0861 2.9695l-.0216 6.7137h2.0658v-5.2289c0-.2797.0215-.5595.0645-.7962.2367-1.2695 1.0759-2.0657 2.1734-2.0657.2152 0 .3658.0215.5594.043l.2152.0215v-1.9581z"/><path d="m98.7041 18.3979c-2.7328 0-4.6479 2.1949-4.6479 5.315 0 3.0126 1.8936 4.9707 4.8415 4.9707 1.5493 0 2.6253-.3443 3.2493-.624l.129-.0645-.387-1.5278-.172.0645c-.56.2367-1.313.4519-2.5826.4519-.9037 0-2.948-.3013-3.0771-2.991l6.6277.0215.021-.1291c.043-.2152.065-.4949.065-.8607.022-2.1303-1.054-4.6265-4.0669-4.6265zm-.1291 1.5494c.624 0 1.1404.1936 1.506.581.581.6025.689 1.4847.71 1.9151h-4.6906c.1936-1.1835.9253-2.4961 2.4746-2.4961z"/></g></svg>