<svg width="300" height="70" viewBox="0 0 300 70" fill="none" xmlns="http://www.w3.org/2000/svg">
<path d="M0.5 5C0.5 2.51472 2.51472 0.5 5 0.5H295C297.485 0.5 299.5 2.51472 299.5 5V65C299.5 67.4853 297.485 69.5 295 69.5H5C2.51471 69.5 0.5 67.4853 0.5 65V5Z" fill="#B7FFEB" stroke="#16FFBD"/>
<path d="M67.4659 21.8182V32H66.233V21.8182H67.4659ZM70.9522 27.4062V32H69.7789V24.3636H70.9125V25.5568H71.0119C71.1909 25.169 71.4627 24.8575 71.8272 24.6222C72.1918 24.3835 72.6625 24.2642 73.2392 24.2642C73.7562 24.2642 74.2086 24.3703 74.5964 24.5824C74.9842 24.7912 75.2858 25.1094 75.5012 25.5369C75.7167 25.9612 75.8244 26.4981 75.8244 27.1477V32H74.6511V27.2273C74.6511 26.6274 74.4953 26.16 74.1838 25.8253C73.8722 25.4872 73.4447 25.3182 72.9011 25.3182C72.5266 25.3182 72.1918 25.3994 71.8968 25.5618C71.6052 25.7242 71.3748 25.9612 71.2058 26.2727C71.0368 26.5843 70.9522 26.9621 70.9522 27.4062ZM81.369 24.3636V25.358H77.2525V24.3636H81.369ZM78.4854 32V23.3097C78.4854 22.8722 78.5882 22.5076 78.7937 22.2159C78.9992 21.9242 79.266 21.7055 79.5941 21.5597C79.9222 21.4138 80.2686 21.3409 80.6332 21.3409C80.9215 21.3409 81.1568 21.3641 81.3391 21.4105C81.5214 21.4569 81.6573 21.5 81.7468 21.5398L81.4087 22.554C81.3491 22.5341 81.2662 22.5092 81.1602 22.4794C81.0574 22.4496 80.9215 22.4347 80.7525 22.4347C80.3647 22.4347 80.0846 22.5324 79.9123 22.728C79.7433 22.9235 79.6587 23.2102 79.6587 23.5881V32H78.4854ZM85.8011 32.1591C85.1117 32.1591 84.5069 31.995 83.9865 31.6669C83.4695 31.3388 83.0651 30.8797 82.7734 30.2898C82.4851 29.6998 82.3409 29.0104 82.3409 28.2216C82.3409 27.4261 82.4851 26.7318 82.7734 26.1385C83.0651 25.5452 83.4695 25.0845 83.9865 24.7564C84.5069 24.4283 85.1117 24.2642 85.8011 24.2642C86.4905 24.2642 87.0938 24.4283 87.6108 24.7564C88.1312 25.0845 88.5355 25.5452 88.8239 26.1385C89.1155 26.7318 89.2614 27.4261 89.2614 28.2216C89.2614 29.0104 89.1155 29.6998 88.8239 30.2898C88.5355 30.8797 88.1312 31.3388 87.6108 31.6669C87.0938 31.995 86.4905 32.1591 85.8011 32.1591ZM85.8011 31.1051C86.3248 31.1051 86.7557 30.9709 87.0938 30.7024C87.4318 30.4339 87.6821 30.081 87.8445 29.6435C88.0069 29.206 88.0881 28.732 88.0881 28.2216C88.0881 27.7112 88.0069 27.2356 87.8445 26.7947C87.6821 26.3539 87.4318 25.9976 87.0938 25.7259C86.7557 25.4541 86.3248 25.3182 85.8011 25.3182C85.2775 25.3182 84.8466 25.4541 84.5085 25.7259C84.1705 25.9976 83.9202 26.3539 83.7578 26.7947C83.5954 27.2356 83.5142 27.7112 83.5142 28.2216C83.5142 28.732 83.5954 29.206 83.7578 29.6435C83.9202 30.081 84.1705 30.4339 84.5085 30.7024C84.8466 30.9709 85.2775 31.1051 85.8011 31.1051ZM91.0524 32V24.3636H92.1859V25.517H92.2654C92.4047 25.1392 92.6565 24.8326 93.0211 24.5973C93.3857 24.362 93.7967 24.2443 94.2541 24.2443C94.3403 24.2443 94.448 24.246 94.5772 24.2493C94.7065 24.2526 94.8043 24.2576 94.8706 24.2642V25.4574C94.8308 25.4474 94.7396 25.4325 94.5971 25.4126C94.4579 25.3894 94.3104 25.3778 94.1547 25.3778C93.7834 25.3778 93.452 25.4557 93.1603 25.6115C92.872 25.764 92.6433 25.9761 92.4743 26.2479C92.3085 26.5163 92.2257 26.8229 92.2257 27.1676V32H91.0524ZM96.2614 32V24.3636H97.3949V25.5568H97.4943C97.6534 25.1491 97.9103 24.8326 98.2649 24.6072C98.6196 24.3786 99.0455 24.2642 99.5426 24.2642C100.046 24.2642 100.466 24.3786 100.8 24.6072C101.138 24.8326 101.402 25.1491 101.591 25.5568H101.67C101.866 25.1624 102.159 24.8492 102.55 24.6172C102.942 24.3819 103.411 24.2642 103.957 24.2642C104.64 24.2642 105.199 24.478 105.633 24.9055C106.067 25.3298 106.284 25.991 106.284 26.8892V32H105.111V26.8892C105.111 26.3258 104.957 25.9231 104.648 25.6811C104.34 25.4392 103.977 25.3182 103.56 25.3182C103.023 25.3182 102.607 25.4806 102.312 25.8054C102.017 26.1269 101.869 26.5346 101.869 27.0284V32H100.676V26.7699C100.676 26.3357 100.535 25.986 100.254 25.7209C99.9718 25.4524 99.6089 25.3182 99.1648 25.3182C98.8598 25.3182 98.5748 25.3994 98.3097 25.5618C98.0478 25.7242 97.8357 25.9496 97.6733 26.2379C97.5142 26.523 97.4347 26.8527 97.4347 27.2273V32H96.2614ZM110.676 32.179C110.193 32.179 109.753 32.0878 109.359 31.9055C108.965 31.7199 108.651 31.4531 108.419 31.1051C108.187 30.7538 108.071 30.3295 108.071 29.8324C108.071 29.3949 108.158 29.0402 108.33 28.7685C108.502 28.4934 108.733 28.2779 109.021 28.1222C109.309 27.9664 109.627 27.8504 109.975 27.7741C110.327 27.6946 110.68 27.6316 111.034 27.5852C111.498 27.5256 111.875 27.4808 112.163 27.451C112.455 27.4179 112.667 27.3632 112.799 27.2869C112.935 27.2107 113.003 27.0781 113.003 26.8892V26.8494C113.003 26.3589 112.869 25.9777 112.6 25.706C112.335 25.4342 111.933 25.2983 111.392 25.2983C110.832 25.2983 110.393 25.4209 110.075 25.6662C109.757 25.9115 109.533 26.1733 109.404 26.4517L108.29 26.054C108.489 25.59 108.754 25.2287 109.086 24.9702C109.42 24.7083 109.785 24.526 110.179 24.4233C110.577 24.3172 110.968 24.2642 111.353 24.2642C111.598 24.2642 111.88 24.294 112.198 24.3537C112.519 24.41 112.829 24.5277 113.127 24.7067C113.429 24.8857 113.679 25.1558 113.878 25.517C114.077 25.8783 114.176 26.3622 114.176 26.9688V32H113.003V30.9659H112.944C112.864 31.1316 112.731 31.3089 112.546 31.4979C112.36 31.6868 112.113 31.8475 111.805 31.9801C111.497 32.1127 111.121 32.179 110.676 32.179ZM110.855 31.125C111.319 31.125 111.711 31.0339 112.029 30.8516C112.35 30.6693 112.592 30.4339 112.755 30.1456C112.92 29.8572 113.003 29.554 113.003 29.2358V28.1619C112.953 28.2216 112.844 28.2763 112.675 28.326C112.509 28.3724 112.317 28.4138 112.098 28.4503C111.883 28.4834 111.672 28.5133 111.467 28.5398C111.265 28.563 111.101 28.5829 110.975 28.5994C110.67 28.6392 110.385 28.7038 110.12 28.7933C109.858 28.8795 109.646 29.0104 109.483 29.1861C109.324 29.3584 109.245 29.5937 109.245 29.892C109.245 30.2997 109.395 30.608 109.697 30.8168C110.002 31.0223 110.388 31.125 110.855 31.125ZM119.42 32.1591C118.704 32.1591 118.088 31.9901 117.571 31.652C117.054 31.3139 116.656 30.8482 116.378 30.255C116.099 29.6617 115.96 28.9839 115.96 28.2216C115.96 27.446 116.103 26.7616 116.388 26.1683C116.676 25.5717 117.077 25.1061 117.591 24.7713C118.108 24.4332 118.711 24.2642 119.4 24.2642C119.937 24.2642 120.421 24.3636 120.852 24.5625C121.283 24.7614 121.636 25.0398 121.911 25.3977C122.186 25.7557 122.357 26.1733 122.423 26.6506H121.25C121.16 26.3026 120.961 25.9943 120.653 25.7259C120.348 25.4541 119.937 25.3182 119.42 25.3182C118.963 25.3182 118.562 25.4375 118.217 25.6761C117.876 25.9115 117.609 26.2446 117.417 26.6754C117.228 27.103 117.133 27.6051 117.133 28.1818C117.133 28.7718 117.226 29.2855 117.412 29.723C117.601 30.1605 117.866 30.5002 118.207 30.7422C118.552 30.9841 118.956 31.1051 119.42 31.1051C119.725 31.1051 120.002 31.0521 120.251 30.946C120.499 30.84 120.71 30.6875 120.882 30.4886C121.054 30.2898 121.177 30.0511 121.25 29.7727H122.423C122.357 30.2235 122.193 30.6295 121.931 30.9908C121.672 31.3487 121.329 31.6338 120.902 31.8459C120.478 32.0547 119.984 32.1591 119.42 32.1591ZM124.138 32V24.3636H125.312V32H124.138ZM124.735 23.0909C124.506 23.0909 124.309 23.013 124.143 22.8572C123.981 22.7015 123.9 22.5142 123.9 22.2955C123.9 22.0767 123.981 21.8894 124.143 21.7337C124.309 21.5779 124.506 21.5 124.735 21.5C124.964 21.5 125.159 21.5779 125.322 21.7337C125.487 21.8894 125.57 22.0767 125.57 22.2955C125.57 22.5142 125.487 22.7015 125.322 22.8572C125.159 23.013 124.964 23.0909 124.735 23.0909ZM127.461 24.3636H128.634V32.5568C128.634 33.0275 128.553 33.4351 128.39 33.7798C128.231 34.1245 127.989 34.3913 127.664 34.5803C127.343 34.7692 126.937 34.8636 126.446 34.8636C126.407 34.8636 126.367 34.8636 126.327 34.8636C126.287 34.8636 126.248 34.8636 126.208 34.8636V33.7699C126.248 33.7699 126.284 33.7699 126.317 33.7699C126.35 33.7699 126.387 33.7699 126.426 33.7699C126.784 33.7699 127.046 33.6638 127.212 33.4517C127.378 33.2429 127.461 32.9446 127.461 32.5568V24.3636ZM128.037 23.0909C127.809 23.0909 127.611 23.013 127.446 22.8572C127.283 22.7015 127.202 22.5142 127.202 22.2955C127.202 22.0767 127.283 21.8894 127.446 21.7337C127.611 21.5779 127.809 21.5 128.037 21.5C128.266 21.5 128.462 21.5779 128.624 21.7337C128.79 21.8894 128.873 22.0767 128.873 22.2955C128.873 22.5142 128.79 22.7015 128.624 22.8572C128.462 23.013 128.266 23.0909 128.037 23.0909ZM133.985 32.1591C133.249 32.1591 132.614 31.9967 132.08 31.6719C131.55 31.3438 131.141 30.8864 130.852 30.2997C130.567 29.7098 130.425 29.0237 130.425 28.2415C130.425 27.4593 130.567 26.7699 130.852 26.1733C131.141 25.5734 131.542 25.1061 132.056 24.7713C132.573 24.4332 133.176 24.2642 133.865 24.2642C134.263 24.2642 134.656 24.3305 135.044 24.4631C135.431 24.5956 135.784 24.8111 136.102 25.1094C136.421 25.4044 136.674 25.7955 136.863 26.2827C137.052 26.7699 137.146 27.3698 137.146 28.0824V28.5795H131.26V27.5653H135.953C135.953 27.1345 135.867 26.75 135.695 26.4119C135.526 26.0739 135.284 25.8071 134.969 25.6115C134.657 25.416 134.289 25.3182 133.865 25.3182C133.398 25.3182 132.994 25.4342 132.652 25.6662C132.314 25.8949 132.054 26.1932 131.872 26.5611C131.689 26.929 131.598 27.3234 131.598 27.7443V28.4205C131.598 28.9972 131.698 29.486 131.896 29.8871C132.099 30.2848 132.379 30.5881 132.737 30.7969C133.095 31.0024 133.511 31.1051 133.985 31.1051C134.293 31.1051 134.571 31.062 134.82 30.9759C135.072 30.8864 135.289 30.7538 135.471 30.5781C135.653 30.3991 135.794 30.1771 135.894 29.9119L137.027 30.2301C136.908 30.6146 136.707 30.9527 136.426 31.2443C136.144 31.5327 135.796 31.758 135.382 31.9205C134.967 32.0795 134.502 32.1591 133.985 32.1591ZM142.869 34.8636V24.3636H144.002V25.5767H144.142C144.228 25.4441 144.347 25.2751 144.499 25.0696C144.655 24.8608 144.877 24.6752 145.166 24.5128C145.457 24.3471 145.852 24.2642 146.349 24.2642C146.992 24.2642 147.559 24.425 148.049 24.7464C148.54 25.0679 148.923 25.5237 149.198 26.1136C149.473 26.7036 149.61 27.3996 149.61 28.2017C149.61 29.0104 149.473 29.7114 149.198 30.3047C148.923 30.8946 148.541 31.352 148.054 31.6768C147.567 31.9983 147.005 32.1591 146.369 32.1591C145.878 32.1591 145.485 32.0779 145.191 31.9155C144.896 31.7498 144.669 31.5625 144.509 31.3537C144.35 31.1416 144.228 30.9659 144.142 30.8267H144.042V34.8636H142.869ZM144.022 28.1818C144.022 28.7585 144.107 29.2673 144.276 29.7081C144.445 30.1456 144.692 30.4886 145.017 30.7372C145.341 30.9825 145.739 31.1051 146.21 31.1051C146.7 31.1051 147.11 30.9759 147.438 30.7173C147.769 30.4555 148.018 30.1042 148.183 29.6634C148.352 29.2192 148.437 28.7254 148.437 28.1818C148.437 27.6449 148.354 27.161 148.188 26.7301C148.026 26.2959 147.779 25.9529 147.448 25.701C147.119 25.4458 146.707 25.3182 146.21 25.3182C145.732 25.3182 145.331 25.4392 145.007 25.6811C144.682 25.9197 144.436 26.2545 144.271 26.6854C144.105 27.1129 144.022 27.6117 144.022 28.1818ZM156.213 28.8778V24.3636H157.386V32H156.213V30.7074H156.133C155.954 31.0952 155.676 31.425 155.298 31.6967C154.92 31.9652 154.443 32.0994 153.866 32.0994C153.389 32.0994 152.964 31.995 152.593 31.7862C152.222 31.5741 151.93 31.2559 151.718 30.8317C151.506 30.4041 151.4 29.8655 151.4 29.2159V24.3636H152.573V29.1364C152.573 29.6932 152.729 30.1373 153.041 30.4688C153.356 30.8002 153.757 30.9659 154.244 30.9659C154.535 30.9659 154.832 30.8913 155.134 30.7422C155.439 30.593 155.694 30.3643 155.899 30.0561C156.108 29.7479 156.213 29.3551 156.213 28.8778ZM160.708 27.4062V32H159.535V24.3636H160.668V25.5568H160.768C160.947 25.169 161.219 24.8575 161.583 24.6222C161.948 24.3835 162.418 24.2642 162.995 24.2642C163.512 24.2642 163.964 24.3703 164.352 24.5824C164.74 24.7912 165.042 25.1094 165.257 25.5369C165.473 25.9612 165.58 26.4981 165.58 27.1477V32H164.407V27.2273C164.407 26.6274 164.251 26.16 163.94 25.8253C163.628 25.4872 163.201 25.3182 162.657 25.3182C162.282 25.3182 161.948 25.3994 161.653 25.5618C161.361 25.7242 161.131 25.9612 160.962 26.2727C160.793 26.5843 160.708 26.9621 160.708 27.4062ZM167.724 32V24.3636H168.898V32H167.724ZM168.321 23.0909C168.092 23.0909 167.895 23.013 167.729 22.8572C167.567 22.7015 167.486 22.5142 167.486 22.2955C167.486 22.0767 167.567 21.8894 167.729 21.7337C167.895 21.5779 168.092 21.5 168.321 21.5C168.55 21.5 168.745 21.5779 168.907 21.7337C169.073 21.8894 169.156 22.0767 169.156 22.2955C169.156 22.5142 169.073 22.7015 168.907 22.8572C168.745 23.013 168.55 23.0909 168.321 23.0909ZM174.149 32.1591C173.459 32.1591 172.855 31.995 172.334 31.6669C171.817 31.3388 171.413 30.8797 171.121 30.2898C170.833 29.6998 170.689 29.0104 170.689 28.2216C170.689 27.4261 170.833 26.7318 171.121 26.1385C171.413 25.5452 171.817 25.0845 172.334 24.7564C172.855 24.4283 173.459 24.2642 174.149 24.2642C174.838 24.2642 175.441 24.4283 175.958 24.7564C176.479 25.0845 176.883 25.5452 177.172 26.1385C177.463 26.7318 177.609 27.4261 177.609 28.2216C177.609 29.0104 177.463 29.6998 177.172 30.2898C176.883 30.8797 176.479 31.3388 175.958 31.6669C175.441 31.995 174.838 32.1591 174.149 32.1591ZM174.149 31.1051C174.672 31.1051 175.103 30.9709 175.441 30.7024C175.779 30.4339 176.03 30.081 176.192 29.6435C176.355 29.206 176.436 28.732 176.436 28.2216C176.436 27.7112 176.355 27.2356 176.192 26.7947C176.03 26.3539 175.779 25.9976 175.441 25.7259C175.103 25.4541 174.672 25.3182 174.149 25.3182C173.625 25.3182 173.194 25.4541 172.856 25.7259C172.518 25.9976 172.268 26.3539 172.105 26.7947C171.943 27.2356 171.862 27.7112 171.862 28.2216C171.862 28.732 171.943 29.206 172.105 29.6435C172.268 30.081 172.518 30.4339 172.856 30.7024C173.194 30.9709 173.625 31.1051 174.149 31.1051ZM180.573 27.4062V32H179.4V24.3636H180.534V25.5568H180.633C180.812 25.169 181.084 24.8575 181.448 24.6222C181.813 24.3835 182.284 24.2642 182.86 24.2642C183.377 24.2642 183.83 24.3703 184.218 24.5824C184.605 24.7912 184.907 25.1094 185.122 25.5369C185.338 25.9612 185.445 26.4981 185.445 27.1477V32H184.272V27.2273C184.272 26.6274 184.116 26.16 183.805 25.8253C183.493 25.4872 183.066 25.3182 182.522 25.3182C182.148 25.3182 181.813 25.3994 181.518 25.5618C181.226 25.7242 180.996 25.9612 180.827 26.2727C180.658 26.5843 180.573 26.9621 180.573 27.4062ZM187.589 32V24.3636H188.763V32H187.589ZM188.186 23.0909C187.957 23.0909 187.76 23.013 187.594 22.8572C187.432 22.7015 187.351 22.5142 187.351 22.2955C187.351 22.0767 187.432 21.8894 187.594 21.7337C187.76 21.5779 187.957 21.5 188.186 21.5C188.415 21.5 188.61 21.5779 188.773 21.7337C188.938 21.8894 189.021 22.0767 189.021 22.2955C189.021 22.5142 188.938 22.7015 188.773 22.8572C188.61 23.013 188.415 23.0909 188.186 23.0909ZM194.014 32.1591C193.298 32.1591 192.682 31.9901 192.165 31.652C191.648 31.3139 191.25 30.8482 190.971 30.255C190.693 29.6617 190.554 28.9839 190.554 28.2216C190.554 27.446 190.696 26.7616 190.981 26.1683C191.27 25.5717 191.671 25.1061 192.184 24.7713C192.702 24.4332 193.305 24.2642 193.994 24.2642C194.531 24.2642 195.015 24.3636 195.446 24.5625C195.877 24.7614 196.23 25.0398 196.505 25.3977C196.78 25.7557 196.951 26.1733 197.017 26.6506H195.844C195.754 26.3026 195.555 25.9943 195.247 25.7259C194.942 25.4541 194.531 25.3182 194.014 25.3182C193.557 25.3182 193.156 25.4375 192.811 25.6761C192.47 25.9115 192.203 26.2446 192.01 26.6754C191.822 27.103 191.727 27.6051 191.727 28.1818C191.727 28.7718 191.82 29.2855 192.006 29.723C192.194 30.1605 192.46 30.5002 192.801 30.7422C193.146 30.9841 193.55 31.1051 194.014 31.1051C194.319 31.1051 194.596 31.0521 194.844 30.946C195.093 30.84 195.303 30.6875 195.476 30.4886C195.648 30.2898 195.771 30.0511 195.844 29.7727H197.017C196.951 30.2235 196.787 30.6295 196.525 30.9908C196.266 31.3487 195.923 31.6338 195.496 31.8459C195.071 32.0547 194.577 32.1591 194.014 32.1591ZM200.979 32.179C200.495 32.179 200.056 32.0878 199.662 31.9055C199.267 31.7199 198.954 31.4531 198.722 31.1051C198.49 30.7538 198.374 30.3295 198.374 29.8324C198.374 29.3949 198.46 29.0402 198.633 28.7685C198.805 28.4934 199.035 28.2779 199.324 28.1222C199.612 27.9664 199.93 27.8504 200.278 27.7741C200.63 27.6946 200.983 27.6316 201.337 27.5852C201.801 27.5256 202.177 27.4808 202.466 27.451C202.757 27.4179 202.97 27.3632 203.102 27.2869C203.238 27.2107 203.306 27.0781 203.306 26.8892V26.8494C203.306 26.3589 203.172 25.9777 202.903 25.706C202.638 25.4342 202.235 25.2983 201.695 25.2983C201.135 25.2983 200.696 25.4209 200.378 25.6662C200.059 25.9115 199.836 26.1733 199.706 26.4517L198.593 26.054C198.792 25.59 199.057 25.2287 199.388 24.9702C199.723 24.7083 200.088 24.526 200.482 24.4233C200.88 24.3172 201.271 24.2642 201.655 24.2642C201.901 24.2642 202.182 24.294 202.501 24.3537C202.822 24.41 203.132 24.5277 203.43 24.7067C203.732 24.8857 203.982 25.1558 204.181 25.517C204.38 25.8783 204.479 26.3622 204.479 26.9688V32H203.306V30.9659H203.246C203.167 31.1316 203.034 31.3089 202.849 31.4979C202.663 31.6868 202.416 31.8475 202.108 31.9801C201.8 32.1127 201.423 32.179 200.979 32.179ZM201.158 31.125C201.622 31.125 202.013 31.0339 202.331 30.8516C202.653 30.6693 202.895 30.4339 203.057 30.1456C203.223 29.8572 203.306 29.554 203.306 29.2358V28.1619C203.256 28.2216 203.147 28.2763 202.978 28.326C202.812 28.3724 202.62 28.4138 202.401 28.4503C202.186 28.4834 201.975 28.5133 201.77 28.5398C201.568 28.563 201.403 28.5829 201.278 28.5994C200.973 28.6392 200.688 28.7038 200.422 28.7933C200.161 28.8795 199.948 29.0104 199.786 29.1861C199.627 29.3584 199.547 29.5937 199.547 29.892C199.547 30.2997 199.698 30.608 200 30.8168C200.305 31.0223 200.691 31.125 201.158 31.125ZM210.339 32V31.1051L214.675 25.5369V25.4574H210.479V24.3636H216.186V25.2983L211.97 30.8267V30.9062H216.325V32H210.339ZM220.38 32.179C219.896 32.179 219.457 32.0878 219.062 31.9055C218.668 31.7199 218.355 31.4531 218.123 31.1051C217.891 30.7538 217.775 30.3295 217.775 29.8324C217.775 29.3949 217.861 29.0402 218.033 28.7685C218.205 28.4934 218.436 28.2779 218.724 28.1222C219.012 27.9664 219.331 27.8504 219.679 27.7741C220.03 27.6946 220.383 27.6316 220.738 27.5852C221.202 27.5256 221.578 27.4808 221.866 27.451C222.158 27.4179 222.37 27.3632 222.502 27.2869C222.638 27.2107 222.706 27.0781 222.706 26.8892V26.8494C222.706 26.3589 222.572 25.9777 222.304 25.706C222.038 25.4342 221.636 25.2983 221.096 25.2983C220.535 25.2983 220.096 25.4209 219.778 25.6662C219.46 25.9115 219.236 26.1733 219.107 26.4517L217.993 26.054C218.192 25.59 218.457 25.2287 218.789 24.9702C219.123 24.7083 219.488 24.526 219.882 24.4233C220.28 24.3172 220.671 24.2642 221.056 24.2642C221.301 24.2642 221.583 24.294 221.901 24.3537C222.222 24.41 222.532 24.5277 222.831 24.7067C223.132 24.8857 223.382 25.1558 223.581 25.517C223.78 25.8783 223.88 26.3622 223.88 26.9688V32H222.706V30.9659H222.647C222.567 31.1316 222.435 31.3089 222.249 31.4979C222.063 31.6868 221.816 31.8475 221.508 31.9801C221.2 32.1127 220.824 32.179 220.38 32.179ZM220.559 31.125C221.023 31.125 221.414 31.0339 221.732 30.8516C222.053 30.6693 222.295 30.4339 222.458 30.1456C222.623 29.8572 222.706 29.554 222.706 29.2358V28.1619C222.657 28.2216 222.547 28.2763 222.378 28.326C222.212 28.3724 222.02 28.4138 221.801 28.4503C221.586 28.4834 221.376 28.5133 221.17 28.5398C220.968 28.563 220.804 28.5829 220.678 28.5994C220.373 28.6392 220.088 28.7038 219.823 28.7933C219.561 28.8795 219.349 29.0104 219.186 29.1861C219.027 29.3584 218.948 29.5937 218.948 29.892C218.948 30.2997 219.099 30.608 219.4 30.8168C219.705 31.0223 220.091 31.125 220.559 31.125ZM69.2756 49.1591C68.5398 49.1591 67.9051 48.9967 67.3714 48.6719C66.8411 48.3438 66.4318 47.8864 66.1435 47.2997C65.8584 46.7098 65.7159 46.0237 65.7159 45.2415C65.7159 44.4593 65.8584 43.7699 66.1435 43.1733C66.4318 42.5734 66.8329 42.1061 67.3466 41.7713C67.8636 41.4332 68.4669 41.2642 69.1562 41.2642C69.554 41.2642 69.9467 41.3305 70.3345 41.4631C70.7223 41.5956 71.0753 41.8111 71.3935 42.1094C71.7116 42.4044 71.9652 42.7955 72.1541 43.2827C72.343 43.7699 72.4375 44.3698 72.4375 45.0824V45.5795H66.5511V44.5653H71.2443C71.2443 44.1345 71.1581 43.75 70.9858 43.4119C70.8168 43.0739 70.5748 42.8071 70.2599 42.6115C69.9484 42.416 69.5805 42.3182 69.1562 42.3182C68.6889 42.3182 68.2846 42.4342 67.9432 42.6662C67.6051 42.8949 67.3449 43.1932 67.1626 43.5611C66.9804 43.929 66.8892 44.3234 66.8892 44.7443V45.4205C66.8892 45.9972 66.9886 46.486 67.1875 46.8871C67.3897 47.2848 67.6697 47.5881 68.0277 47.7969C68.3857 48.0024 68.8016 48.1051 69.2756 48.1051C69.5838 48.1051 69.8622 48.062 70.1108 47.9759C70.3627 47.8864 70.5798 47.7538 70.7621 47.5781C70.9444 47.3991 71.0852 47.1771 71.1847 46.9119L72.3182 47.2301C72.1989 47.6146 71.9983 47.9527 71.7166 48.2443C71.4349 48.5327 71.0869 48.758 70.6726 48.9205C70.2583 49.0795 69.7926 49.1591 69.2756 49.1591ZM75.3956 38.8182V49H74.2223V38.8182H75.3956ZM80.7463 49.1591C80.0105 49.1591 79.3758 48.9967 78.8422 48.6719C78.3118 48.3438 77.9025 47.8864 77.6142 47.2997C77.3291 46.7098 77.1866 46.0237 77.1866 45.2415C77.1866 44.4593 77.3291 43.7699 77.6142 43.1733C77.9025 42.5734 78.3036 42.1061 78.8173 41.7713C79.3343 41.4332 79.9376 41.2642 80.627 41.2642C81.0247 41.2642 81.4174 41.3305 81.8052 41.4631C82.193 41.5956 82.546 41.8111 82.8642 42.1094C83.1824 42.4044 83.4359 42.7955 83.6248 43.2827C83.8137 43.7699 83.9082 44.3698 83.9082 45.0824V45.5795H78.0218V44.5653H82.715C82.715 44.1345 82.6288 43.75 82.4565 43.4119C82.2875 43.0739 82.0455 42.8071 81.7306 42.6115C81.4191 42.416 81.0512 42.3182 80.627 42.3182C80.1596 42.3182 79.7553 42.4342 79.4139 42.6662C79.0758 42.8949 78.8156 43.1932 78.6333 43.5611C78.4511 43.929 78.3599 44.3234 78.3599 44.7443V45.4205C78.3599 45.9972 78.4593 46.486 78.6582 46.8871C78.8604 47.2848 79.1404 47.5881 79.4984 47.7969C79.8564 48.0024 80.2723 48.1051 80.7463 48.1051C81.0545 48.1051 81.3329 48.062 81.5815 47.9759C81.8334 47.8864 82.0505 47.7538 82.2328 47.5781C82.4151 47.3991 82.5559 47.1771 82.6554 46.9119L83.7889 47.2301C83.6696 47.6146 83.469 47.9527 83.1873 48.2443C82.9056 48.5327 82.5576 48.758 82.1433 48.9205C81.729 49.0795 81.2633 49.1591 80.7463 49.1591ZM86.7868 46.2159L86.7669 44.7642H87.0055L90.3464 41.3636H91.7981L88.2385 44.9631H88.139L86.7868 46.2159ZM85.693 49V38.8182H86.8663V49H85.693ZM90.5453 49L87.5623 45.2216L88.3975 44.4062L92.0368 49H90.5453ZM96.6293 41.3636V42.358H92.6719V41.3636H96.6293ZM93.8253 39.5341H94.9986V46.8125C94.9986 47.1439 95.0466 47.3925 95.1428 47.5582C95.2422 47.7206 95.3681 47.83 95.5206 47.8864C95.6764 47.9394 95.8404 47.9659 96.0128 47.9659C96.142 47.9659 96.2481 47.9593 96.331 47.946C96.4138 47.9295 96.4801 47.9162 96.5298 47.9062L96.7685 48.9602C96.6889 48.9901 96.5779 49.0199 96.4354 49.0497C96.2929 49.0829 96.1122 49.0994 95.8935 49.0994C95.562 49.0994 95.2372 49.0282 94.919 48.8857C94.6042 48.7431 94.3423 48.526 94.1335 48.2344C93.928 47.9427 93.8253 47.5748 93.8253 47.1307V39.5341ZM98.3942 49V41.3636H99.5277V42.517H99.6072C99.7464 42.1392 99.9983 41.8326 100.363 41.5973C100.728 41.362 101.138 41.2443 101.596 41.2443C101.682 41.2443 101.79 41.246 101.919 41.2493C102.048 41.2526 102.146 41.2576 102.212 41.2642V42.4574C102.173 42.4474 102.081 42.4325 101.939 42.4126C101.8 42.3894 101.652 42.3778 101.496 42.3778C101.125 42.3778 100.794 42.4557 100.502 42.6115C100.214 42.764 99.9851 42.9761 99.8161 43.2479C99.6503 43.5163 99.5675 43.8229 99.5675 44.1676V49H98.3942ZM103.603 49V41.3636H104.776V49H103.603ZM104.2 40.0909C103.971 40.0909 103.774 40.013 103.608 39.8572C103.446 39.7015 103.365 39.5142 103.365 39.2955C103.365 39.0767 103.446 38.8894 103.608 38.7337C103.774 38.5779 103.971 38.5 104.2 38.5C104.428 38.5 104.624 38.5779 104.786 38.7337C104.952 38.8894 105.035 39.0767 105.035 39.2955C105.035 39.5142 104.952 39.7015 104.786 39.8572C104.624 40.013 104.428 40.0909 104.2 40.0909ZM110.028 49.1591C109.312 49.1591 108.695 48.9901 108.178 48.652C107.661 48.3139 107.263 47.8482 106.985 47.255C106.707 46.6617 106.567 45.9839 106.567 45.2216C106.567 44.446 106.71 43.7616 106.995 43.1683C107.283 42.5717 107.684 42.1061 108.198 41.7713C108.715 41.4332 109.318 41.2642 110.008 41.2642C110.545 41.2642 111.029 41.3636 111.46 41.5625C111.89 41.7614 112.243 42.0398 112.518 42.3977C112.794 42.7557 112.964 43.1733 113.031 43.6506H111.857C111.768 43.3026 111.569 42.9943 111.261 42.7259C110.956 42.4541 110.545 42.3182 110.028 42.3182C109.57 42.3182 109.169 42.4375 108.825 42.6761C108.483 42.9115 108.216 43.2446 108.024 43.6754C107.835 44.103 107.741 44.6051 107.741 45.1818C107.741 45.7718 107.834 46.2855 108.019 46.723C108.208 47.1605 108.473 47.5002 108.815 47.7422C109.159 47.9841 109.564 48.1051 110.028 48.1051C110.333 48.1051 110.609 48.0521 110.858 47.946C111.107 47.84 111.317 47.6875 111.489 47.4886C111.662 47.2898 111.784 47.0511 111.857 46.7727H113.031C112.964 47.2235 112.8 47.6295 112.538 47.9908C112.28 48.3487 111.937 48.6338 111.509 48.8459C111.085 49.0547 110.591 49.1591 110.028 49.1591ZM108.954 38.3011L109.988 39.6932L111.022 38.3011H112.136V38.3807L110.525 40.4489H109.451L107.84 38.3807V38.3011H108.954ZM115.919 44.4062V49H114.746V41.3636H115.879V42.5568H115.979C116.158 42.169 116.429 41.8575 116.794 41.6222C117.159 41.3835 117.629 41.2642 118.206 41.2642C118.723 41.2642 119.175 41.3703 119.563 41.5824C119.951 41.7912 120.253 42.1094 120.468 42.5369C120.683 42.9612 120.791 43.4981 120.791 44.1477V49H119.618V44.2273C119.618 43.6274 119.462 43.16 119.151 42.8253C118.839 42.4872 118.411 42.3182 117.868 42.3182C117.493 42.3182 117.159 42.3994 116.864 42.5618C116.572 42.7242 116.342 42.9612 116.173 43.2727C116.004 43.5843 115.919 43.9621 115.919 44.4062ZM125.182 49.179C124.698 49.179 124.259 49.0878 123.865 48.9055C123.47 48.7199 123.157 48.4531 122.925 48.1051C122.693 47.7538 122.577 47.3295 122.577 46.8324C122.577 46.3949 122.663 46.0402 122.836 45.7685C123.008 45.4934 123.238 45.2779 123.527 45.1222C123.815 44.9664 124.133 44.8504 124.481 44.7741C124.833 44.6946 125.186 44.6316 125.54 44.5852C126.004 44.5256 126.381 44.4808 126.669 44.451C126.961 44.4179 127.173 44.3632 127.305 44.2869C127.441 44.2107 127.509 44.0781 127.509 43.8892V43.8494C127.509 43.3589 127.375 42.9777 127.106 42.706C126.841 42.4342 126.439 42.2983 125.898 42.2983C125.338 42.2983 124.899 42.4209 124.581 42.6662C124.263 42.9115 124.039 43.1733 123.91 43.4517L122.796 43.054C122.995 42.59 123.26 42.2287 123.591 41.9702C123.926 41.7083 124.291 41.526 124.685 41.4233C125.083 41.3172 125.474 41.2642 125.858 41.2642C126.104 41.2642 126.385 41.294 126.704 41.3537C127.025 41.41 127.335 41.5277 127.633 41.7067C127.935 41.8857 128.185 42.1558 128.384 42.517C128.583 42.8783 128.682 43.3622 128.682 43.9688V49H127.509V47.9659H127.449C127.37 48.1316 127.237 48.3089 127.052 48.4979C126.866 48.6868 126.619 48.8475 126.311 48.9801C126.003 49.1127 125.626 49.179 125.182 49.179ZM125.361 48.125C125.825 48.125 126.216 48.0339 126.535 47.8516C126.856 47.6693 127.098 47.4339 127.26 47.1456C127.426 46.8572 127.509 46.554 127.509 46.2358V45.1619C127.459 45.2216 127.35 45.2763 127.181 45.326C127.015 45.3724 126.823 45.4138 126.604 45.4503C126.389 45.4834 126.178 45.5133 125.973 45.5398C125.771 45.563 125.607 45.5829 125.481 45.5994C125.176 45.6392 124.891 45.7038 124.626 45.7933C124.364 45.8795 124.152 46.0104 123.989 46.1861C123.83 46.3584 123.751 46.5937 123.751 46.892C123.751 47.2997 123.901 47.608 124.203 47.8168C124.508 48.0223 124.894 48.125 125.361 48.125ZM141.006 41.3636L138.182 49H136.989L134.165 41.3636H135.438L137.545 47.4489H137.625L139.733 41.3636H141.006ZM145.383 49.1591C144.694 49.1591 144.089 48.995 143.569 48.6669C143.051 48.3388 142.647 47.8797 142.355 47.2898C142.067 46.6998 141.923 46.0104 141.923 45.2216C141.923 44.4261 142.067 43.7318 142.355 43.1385C142.647 42.5452 143.051 42.0845 143.569 41.7564C144.089 41.4283 144.694 41.2642 145.383 41.2642C146.073 41.2642 146.676 41.4283 147.193 41.7564C147.713 42.0845 148.118 42.5452 148.406 43.1385C148.698 43.7318 148.843 44.4261 148.843 45.2216C148.843 46.0104 148.698 46.6998 148.406 47.2898C148.118 47.8797 147.713 48.3388 147.193 48.6669C146.676 48.995 146.073 49.1591 145.383 49.1591ZM145.383 48.1051C145.907 48.1051 146.338 47.9709 146.676 47.7024C147.014 47.4339 147.264 47.081 147.426 46.6435C147.589 46.206 147.67 45.732 147.67 45.2216C147.67 44.7112 147.589 44.2356 147.426 43.7947C147.264 43.3539 147.014 42.9976 146.676 42.7259C146.338 42.4541 145.907 42.3182 145.383 42.3182C144.859 42.3182 144.429 42.4541 144.091 42.7259C143.752 42.9976 143.502 43.3539 143.34 43.7947C143.177 44.2356 143.096 44.7112 143.096 45.2216C143.096 45.732 143.177 46.206 143.34 46.6435C143.502 47.081 143.752 47.4339 144.091 47.7024C144.429 47.9709 144.859 48.1051 145.383 48.1051ZM150.416 49V48.1051L154.751 42.5369V42.4574H150.555V41.3636H156.262V42.2983L152.046 47.8267V47.9062H156.401V49H150.416ZM158.209 49V41.3636H159.382V49H158.209ZM158.805 40.0909C158.577 40.0909 158.379 40.013 158.214 39.8572C158.051 39.7015 157.97 39.5142 157.97 39.2955C157.97 39.0767 158.051 38.8894 158.214 38.7337C158.379 38.5779 158.577 38.5 158.805 38.5C159.034 38.5 159.229 38.5779 159.392 38.7337C159.558 38.8894 159.64 39.0767 159.64 39.2955C159.64 39.5142 159.558 39.7015 159.392 39.8572C159.229 40.013 159.034 40.0909 158.805 40.0909ZM162.704 38.8182V49H161.531V38.8182H162.704ZM167.1 49.179C166.616 49.179 166.177 49.0878 165.783 48.9055C165.388 48.7199 165.075 48.4531 164.843 48.1051C164.611 47.7538 164.495 47.3295 164.495 46.8324C164.495 46.3949 164.581 46.0402 164.754 45.7685C164.926 45.4934 165.156 45.2779 165.445 45.1222C165.733 44.9664 166.051 44.8504 166.399 44.7741C166.751 44.6946 167.104 44.6316 167.458 44.5852C167.922 44.5256 168.298 44.4808 168.587 44.451C168.878 44.4179 169.091 44.3632 169.223 44.2869C169.359 44.2107 169.427 44.0781 169.427 43.8892V43.8494C169.427 43.3589 169.293 42.9777 169.024 42.706C168.759 42.4342 168.356 42.2983 167.816 42.2983C167.256 42.2983 166.817 42.4209 166.499 42.6662C166.181 42.9115 165.957 43.1733 165.828 43.4517L164.714 43.054C164.913 42.59 165.178 42.2287 165.509 41.9702C165.844 41.7083 166.209 41.526 166.603 41.4233C167.001 41.3172 167.392 41.2642 167.776 41.2642C168.022 41.2642 168.303 41.294 168.622 41.3537C168.943 41.41 169.253 41.5277 169.551 41.7067C169.853 41.8857 170.103 42.1558 170.302 42.517C170.501 42.8783 170.6 43.3622 170.6 43.9688V49H169.427V47.9659H169.367C169.288 48.1316 169.155 48.3089 168.97 48.4979C168.784 48.6868 168.537 48.8475 168.229 48.9801C167.921 49.1127 167.544 49.179 167.1 49.179ZM167.279 48.125C167.743 48.125 168.134 48.0339 168.453 47.8516C168.774 47.6693 169.016 47.4339 169.178 47.1456C169.344 46.8572 169.427 46.554 169.427 46.2358V45.1619C169.377 45.2216 169.268 45.2763 169.099 45.326C168.933 45.3724 168.741 45.4138 168.522 45.4503C168.307 45.4834 168.096 45.5133 167.891 45.5398C167.689 45.563 167.525 45.5829 167.399 45.5994C167.094 45.6392 166.809 45.7038 166.544 45.7933C166.282 45.8795 166.07 46.0104 165.907 46.1861C165.748 46.3584 165.669 46.5937 165.669 46.892C165.669 47.2997 165.819 47.608 166.121 47.8168C166.426 48.0223 166.812 48.125 167.279 48.125ZM179.563 49.1591C178.926 49.1591 178.365 48.9983 177.877 48.6768C177.39 48.352 177.009 47.8946 176.734 47.3047C176.459 46.7114 176.321 46.0104 176.321 45.2017C176.321 44.3996 176.459 43.7036 176.734 43.1136C177.009 42.5237 177.392 42.0679 177.882 41.7464C178.373 41.425 178.94 41.2642 179.583 41.2642C180.08 41.2642 180.473 41.3471 180.761 41.5128C181.053 41.6752 181.275 41.8608 181.427 42.0696C181.583 42.2751 181.704 42.4441 181.79 42.5767H181.89V38.8182H183.063V49H181.929V47.8267H181.79C181.704 47.9659 181.581 48.1416 181.422 48.3537C181.263 48.5625 181.036 48.7498 180.741 48.9155C180.446 49.0779 180.053 49.1591 179.563 49.1591ZM179.722 48.1051C180.193 48.1051 180.59 47.9825 180.915 47.7372C181.24 47.4886 181.487 47.1456 181.656 46.7081C181.825 46.2673 181.909 45.7585 181.909 45.1818C181.909 44.6117 181.827 44.1129 181.661 43.6854C181.495 43.2545 181.25 42.9197 180.925 42.6811C180.6 42.4392 180.199 42.3182 179.722 42.3182C179.225 42.3182 178.81 42.4458 178.479 42.701C178.151 42.9529 177.904 43.2959 177.738 43.7301C177.576 44.161 177.495 44.6449 177.495 45.1818C177.495 45.7254 177.578 46.2192 177.743 46.6634C177.912 47.1042 178.161 47.4555 178.489 47.7173C178.82 47.9759 179.231 48.1051 179.722 48.1051ZM188.477 49.1591C187.788 49.1591 187.183 48.995 186.662 48.6669C186.145 48.3388 185.741 47.8797 185.449 47.2898C185.161 46.6998 185.017 46.0104 185.017 45.2216C185.017 44.4261 185.161 43.7318 185.449 43.1385C185.741 42.5452 186.145 42.0845 186.662 41.7564C187.183 41.4283 187.788 41.2642 188.477 41.2642C189.166 41.2642 189.77 41.4283 190.287 41.7564C190.807 42.0845 191.211 42.5452 191.5 43.1385C191.791 43.7318 191.937 44.4261 191.937 45.2216C191.937 46.0104 191.791 46.6998 191.5 47.2898C191.211 47.8797 190.807 48.3388 190.287 48.6669C189.77 48.995 189.166 49.1591 188.477 49.1591ZM188.477 48.1051C189.001 48.1051 189.431 47.9709 189.77 47.7024C190.108 47.4339 190.358 47.081 190.52 46.6435C190.683 46.206 190.764 45.732 190.764 45.2216C190.764 44.7112 190.683 44.2356 190.52 43.7947C190.358 43.3539 190.108 42.9976 189.77 42.7259C189.431 42.4541 189.001 42.3182 188.477 42.3182C187.953 42.3182 187.522 42.4541 187.184 42.7259C186.846 42.9976 186.596 43.3539 186.434 43.7947C186.271 44.2356 186.19 44.7112 186.19 45.2216C186.19 45.732 186.271 46.206 186.434 46.6435C186.596 47.081 186.846 47.4339 187.184 47.7024C187.522 47.9709 187.953 48.1051 188.477 48.1051ZM194.901 38.8182V49H193.728V38.8182H194.901ZM199.298 49.179C198.814 49.179 198.375 49.0878 197.98 48.9055C197.586 48.7199 197.272 48.4531 197.04 48.1051C196.808 47.7538 196.692 47.3295 196.692 46.8324C196.692 46.3949 196.779 46.0402 196.951 45.7685C197.123 45.4934 197.354 45.2779 197.642 45.1222C197.93 44.9664 198.249 44.8504 198.597 44.7741C198.948 44.6946 199.301 44.6316 199.656 44.5852C200.12 44.5256 200.496 44.4808 200.784 44.451C201.076 44.4179 201.288 44.3632 201.42 44.2869C201.556 44.2107 201.624 44.0781 201.624 43.8892V43.8494C201.624 43.3589 201.49 42.9777 201.222 42.706C200.956 42.4342 200.554 42.2983 200.013 42.2983C199.453 42.2983 199.014 42.4209 198.696 42.6662C198.378 42.9115 198.154 43.1733 198.025 43.4517L196.911 43.054C197.11 42.59 197.375 42.2287 197.707 41.9702C198.041 41.7083 198.406 41.526 198.8 41.4233C199.198 41.3172 199.589 41.2642 199.974 41.2642C200.219 41.2642 200.501 41.294 200.819 41.3537C201.14 41.41 201.45 41.5277 201.749 41.7067C202.05 41.8857 202.3 42.1558 202.499 42.517C202.698 42.8783 202.798 43.3622 202.798 43.9688V49H201.624V47.9659H201.565C201.485 48.1316 201.353 48.3089 201.167 48.4979C200.981 48.6868 200.734 48.8475 200.426 48.9801C200.118 49.1127 199.742 49.179 199.298 49.179ZM199.477 48.125C199.941 48.125 200.332 48.0339 200.65 47.8516C200.971 47.6693 201.213 47.4339 201.376 47.1456C201.541 46.8572 201.624 46.554 201.624 46.2358V45.1619C201.575 45.2216 201.465 45.2763 201.296 45.326C201.13 45.3724 200.938 45.4138 200.719 45.4503C200.504 45.4834 200.294 45.5133 200.088 45.5398C199.886 45.563 199.722 45.5829 199.596 45.5994C199.291 45.6392 199.006 45.7038 198.741 45.7933C198.479 45.8795 198.267 46.0104 198.104 46.1861C197.945 46.3584 197.866 46.5937 197.866 46.892C197.866 47.2997 198.017 47.608 198.318 47.8168C198.623 48.0223 199.009 48.125 199.477 48.125ZM204.72 49V48.1051L209.056 42.5369V42.4574H204.86V41.3636H210.567V42.2983L206.351 47.8267V47.9062H210.706V49H204.72ZM215.496 49.1591C214.76 49.1591 214.126 48.9967 213.592 48.6719C213.062 48.3438 212.653 47.8864 212.364 47.2997C212.079 46.7098 211.937 46.0237 211.937 45.2415C211.937 44.4593 212.079 43.7699 212.364 43.1733C212.653 42.5734 213.054 42.1061 213.567 41.7713C214.084 41.4332 214.688 41.2642 215.377 41.2642C215.775 41.2642 216.167 41.3305 216.555 41.4631C216.943 41.5956 217.296 41.8111 217.614 42.1094C217.932 42.4044 218.186 42.7955 218.375 43.2827C218.564 43.7699 218.658 44.3698 218.658 45.0824V45.5795H212.772V44.5653H217.465C217.465 44.1345 217.379 43.75 217.206 43.4119C217.037 43.0739 216.796 42.8071 216.481 42.6115C216.169 42.416 215.801 42.3182 215.377 42.3182C214.91 42.3182 214.505 42.4342 214.164 42.6662C213.826 42.8949 213.566 43.1932 213.383 43.5611C213.201 43.929 213.11 44.3234 213.11 44.7443V45.4205C213.11 45.9972 213.209 46.486 213.408 46.8871C213.61 47.2848 213.89 47.5881 214.248 47.7969C214.606 48.0024 215.022 48.1051 215.496 48.1051C215.805 48.1051 216.083 48.062 216.331 47.9759C216.583 47.8864 216.8 47.7538 216.983 47.5781C217.165 47.3991 217.306 47.1771 217.405 46.9119L218.539 47.2301C218.42 47.6146 218.219 47.9527 217.937 48.2443C217.656 48.5327 217.308 48.758 216.893 48.9205C216.479 49.0795 216.013 49.1591 215.496 49.1591ZM229.193 45.8778V41.3636H230.366V49H229.193V47.7074H229.113C228.934 48.0952 228.656 48.425 228.278 48.6967C227.9 48.9652 227.423 49.0994 226.846 49.0994C226.369 49.0994 225.945 48.995 225.574 48.7862C225.202 48.5741 224.911 48.2559 224.699 47.8317C224.487 47.4041 224.381 46.8655 224.381 46.2159V41.3636H225.554V46.1364C225.554 46.6932 225.71 47.1373 226.021 47.4688C226.336 47.8002 226.737 47.9659 227.224 47.9659C227.516 47.9659 227.813 47.8913 228.114 47.7422C228.419 47.593 228.674 47.3643 228.88 47.0561C229.089 46.7479 229.193 46.3551 229.193 45.8778ZM237.924 43.0739L236.87 43.3722C236.804 43.1965 236.706 43.0258 236.577 42.8601C236.451 42.6911 236.279 42.5518 236.06 42.4425C235.841 42.3331 235.561 42.2784 235.22 42.2784C234.752 42.2784 234.363 42.3861 234.051 42.6016C233.743 42.8137 233.589 43.0838 233.589 43.4119C233.589 43.7036 233.695 43.9339 233.907 44.103C234.119 44.272 234.451 44.4129 234.902 44.5256L236.035 44.804C236.718 44.9697 237.227 45.2232 237.561 45.5646C237.896 45.9027 238.064 46.3385 238.064 46.8722C238.064 47.3097 237.938 47.7008 237.686 48.0455C237.437 48.3902 237.089 48.6619 236.642 48.8608C236.194 49.0597 235.674 49.1591 235.081 49.1591C234.302 49.1591 233.657 48.9901 233.147 48.652C232.636 48.3139 232.313 47.8201 232.177 47.1705L233.291 46.892C233.397 47.303 233.597 47.6113 233.892 47.8168C234.191 48.0223 234.58 48.125 235.061 48.125C235.608 48.125 236.042 48.009 236.363 47.777C236.688 47.5417 236.85 47.2599 236.85 46.9318C236.85 46.6667 236.758 46.4446 236.572 46.2656C236.386 46.0833 236.101 45.9474 235.717 45.858L234.444 45.5597C233.745 45.3939 233.231 45.1371 232.903 44.7891C232.578 44.4377 232.416 43.9986 232.416 43.4716C232.416 43.0407 232.537 42.6596 232.779 42.3281C233.024 41.9967 233.357 41.7365 233.778 41.5476C234.202 41.3587 234.683 41.2642 235.22 41.2642C235.975 41.2642 236.569 41.4299 237 41.7614C237.434 42.0928 237.742 42.5303 237.924 43.0739ZM240.923 46.2159L240.904 44.7642H241.142L244.483 41.3636H245.935L242.375 44.9631H242.276L240.923 46.2159ZM239.83 49V38.8182H241.003V49H239.83ZM244.682 49L241.699 45.2216L242.534 44.4062L246.173 49H244.682ZM250.233 49.1591C249.543 49.1591 248.939 48.995 248.418 48.6669C247.901 48.3388 247.497 47.8797 247.205 47.2898C246.917 46.6998 246.773 46.0104 246.773 45.2216C246.773 44.4261 246.917 43.7318 247.205 43.1385C247.497 42.5452 247.901 42.0845 248.418 41.7564C248.939 41.4283 249.543 41.2642 250.233 41.2642C250.922 41.2642 251.525 41.4283 252.042 41.7564C252.563 42.0845 252.967 42.5452 253.256 43.1385C253.547 43.7318 253.693 44.4261 253.693 45.2216C253.693 46.0104 253.547 46.6998 253.256 47.2898C252.967 47.8797 252.563 48.3388 252.042 48.6669C251.525 48.995 250.922 49.1591 250.233 49.1591ZM250.233 48.1051C250.756 48.1051 251.187 47.9709 251.525 47.7024C251.863 47.4339 252.114 47.081 252.276 46.6435C252.439 46.206 252.52 45.732 252.52 45.2216C252.52 44.7112 252.439 44.2356 252.276 43.7947C252.114 43.3539 251.863 42.9976 251.525 42.7259C251.187 42.4541 250.756 42.3182 250.233 42.3182C249.709 42.3182 249.278 42.4541 248.94 42.7259C248.602 42.9976 248.352 43.3539 248.189 43.7947C248.027 44.2356 247.946 44.7112 247.946 45.2216C247.946 45.732 248.027 46.206 248.189 46.6435C248.352 47.081 248.602 47.4339 248.94 47.7024C249.278 47.9709 249.709 48.1051 250.233 48.1051ZM255.484 49V41.3636H256.618V42.517H256.697C256.836 42.1392 257.088 41.8326 257.453 41.5973C257.817 41.362 258.228 41.2443 258.686 41.2443C258.772 41.2443 258.88 41.246 259.009 41.2493C259.138 41.2526 259.236 41.2576 259.302 41.2642V42.4574C259.262 42.4474 259.171 42.4325 259.029 42.4126C258.89 42.3894 258.742 42.3778 258.586 42.3778C258.215 42.3778 257.884 42.4557 257.592 42.6115C257.304 42.764 257.075 42.9761 256.906 43.2479C256.74 43.5163 256.657 43.8229 256.657 44.1676V49H255.484ZM263.563 49.1591C262.873 49.1591 262.269 48.995 261.748 48.6669C261.231 48.3388 260.827 47.8797 260.535 47.2898C260.247 46.6998 260.103 46.0104 260.103 45.2216C260.103 44.4261 260.247 43.7318 260.535 43.1385C260.827 42.5452 261.231 42.0845 261.748 41.7564C262.269 41.4283 262.873 41.2642 263.563 41.2642C264.252 41.2642 264.855 41.4283 265.373 41.7564C265.893 42.0845 266.297 42.5452 266.586 43.1385C266.877 43.7318 267.023 44.4261 267.023 45.2216C267.023 46.0104 266.877 46.6998 266.586 47.2898C266.297 47.8797 265.893 48.3388 265.373 48.6669C264.855 48.995 264.252 49.1591 263.563 49.1591ZM263.563 48.1051C264.087 48.1051 264.517 47.9709 264.855 47.7024C265.194 47.4339 265.444 47.081 265.606 46.6435C265.769 46.206 265.85 45.732 265.85 45.2216C265.85 44.7112 265.769 44.2356 265.606 43.7947C265.444 43.3539 265.194 42.9976 264.855 42.7259C264.517 42.4541 264.087 42.3182 263.563 42.3182C263.039 42.3182 262.608 42.4541 262.27 42.7259C261.932 42.9976 261.682 43.3539 261.52 43.7947C261.357 44.2356 261.276 44.7112 261.276 45.2216C261.276 45.732 261.357 46.206 261.52 46.6435C261.682 47.081 261.932 47.4339 262.27 47.7024C262.608 47.9709 263.039 48.1051 263.563 48.1051ZM270.365 38.8182L270.266 46.1364H269.112L269.013 38.8182H270.365ZM269.689 49.0795C269.444 49.0795 269.233 48.9917 269.058 48.8161C268.882 48.6404 268.794 48.4299 268.794 48.1847C268.794 47.9394 268.882 47.7289 269.058 47.5533C269.233 47.3776 269.444 47.2898 269.689 47.2898C269.934 47.2898 270.145 47.3776 270.32 47.5533C270.496 47.7289 270.584 47.9394 270.584 48.1847C270.584 48.3471 270.543 48.4962 270.46 48.6321C270.38 48.768 270.272 48.8774 270.137 48.9602C270.004 49.0398 269.855 49.0795 269.689 49.0795Z" fill="#242C35"/>
<path d="M50.717 26.99L50.7345 26.9711L44.1964 19.9444L42.3333 21.9467L46.0418 25.9322C44.3897 26.6122 43.2121 28.3122 43.2121 30.3333C43.2121 30.9535 43.3258 31.5675 43.5466 32.1404C43.7674 32.7134 44.0911 33.2339 44.4991 33.6724C45.3231 34.558 46.4407 35.0556 47.6061 35.0556C48.2388 35.0556 48.8188 34.9044 49.3636 34.6589V48.2778C49.3636 48.7787 49.1785 49.2592 48.8489 49.6134C48.5192 49.9677 48.0722 50.1667 47.6061 50.1667C47.1399 50.1667 46.6929 49.9677 46.3633 49.6134C46.0337 49.2592 45.8485 48.7787 45.8485 48.2778V39.7778C45.8485 38.7758 45.4781 37.815 44.8189 37.1065C44.1597 36.398 43.2656 36 42.3333 36H40.5758V22.7778C40.5758 21.7758 40.2054 20.815 39.5462 20.1065C38.887 19.398 37.9929 19 37.0606 19H26.5152C25.5829 19 24.6888 19.398 24.0296 20.1065C23.3703 20.815 23 21.7758 23 22.7778V53H40.5758V38.8333H43.2121V48.2778C43.2121 49.5302 43.6751 50.7313 44.4991 51.6169C45.3231 52.5025 46.4407 53 47.6061 53C48.1831 53 48.7545 52.8779 49.2875 52.6405C49.8206 52.4032 50.305 52.0554 50.713 51.6169C51.1211 51.1784 51.4447 50.6578 51.6655 50.0849C51.8863 49.512 52 48.8979 52 48.2778V30.3333C52 29.03 51.5079 27.84 50.717 26.99ZM47.6061 32.2222C47.1399 32.2222 46.6929 32.0232 46.3633 31.669C46.0337 31.3147 45.8485 30.8343 45.8485 30.3333C45.8485 29.8324 46.0337 29.3519 46.3633 28.9977C46.6929 28.6435 47.1399 28.4444 47.6061 28.4444C48.0722 28.4444 48.5192 28.6435 48.8489 28.9977C49.1785 29.3519 49.3636 29.8324 49.3636 30.3333C49.3636 30.8343 49.1785 31.3147 48.8489 31.669C48.5192 32.0232 48.0722 32.2222 47.6061 32.2222ZM30.0303 47.3333V38.8333H26.5152L33.5455 24.6667V34.1111H37.0606L30.0303 47.3333Z" fill="#242C35"/>
</svg>
