<svg fill="none" height="36" viewBox="0 0 111 36" width="111" xmlns="http://www.w3.org/2000/svg" xmlns:xlink="http://www.w3.org/1999/xlink"><linearGradient id="a" gradientUnits="userSpaceOnUse" x1="14.4027" x2="14.4027" y1="6.83507" y2="31.216"><stop offset="0" stop-color="#2079b0"/><stop offset=".2863" stop-color="#4a93b8"/><stop offset=".767" stop-color="#83bebf"/><stop offset="1" stop-color="#97cfbf"/></linearGradient><linearGradient id="b" gradientUnits="userSpaceOnUse" x1="8.25561" x2="23.8519" y1="12.8872" y2="12.8872"><stop offset="0" stop-color="#5abcab"/><stop offset="1" stop-color="#e6e99a"/></linearGradient><linearGradient id="c" gradientUnits="userSpaceOnUse" x1="16.0536" x2="16.0536" y1="19.0261" y2="31.3048"><stop offset="0" stop-color="#e53432"/><stop offset=".1668" stop-color="#d73948"/><stop offset=".5748" stop-color="#b33f72"/><stop offset=".8619" stop-color="#9a4189"/><stop offset="1" stop-color="#904192"/></linearGradient><linearGradient id="d" gradientUnits="userSpaceOnUse" x1="25.0362" x2="25.0362" y1="15.7522" y2="22.3006"><stop offset="0" stop-color="#f18779"/><stop offset=".1194" stop-color="#f2917a"/><stop offset=".7128" stop-color="#fabc77"/><stop offset="1" stop-color="#fdcb73"/></linearGradient><path d="m110.065 31.1368c0 2.6898-2.173 4.8631-4.863 4.8631h-100.33889c-2.68977 0-4.86311-2.1733-4.86311-4.8631v-26.27369c0-2.68977 2.17334-4.86311 4.86311-4.86311h100.33889c2.69 0 4.863 2.17334 4.863 4.86311z" fill="#5f666e"/><path d="m8.26318 6.84131v12.17929 12.2008l12.28692-12.2008z" fill="url(#a)"/><path d="m23.8423 15.7509-4.9491-2.8619-10.63002-6.13265v.08607l12.28692 12.17928z" fill="url(#b)"/><path d="m8.26318 31.2218v.0861l10.63002-6.1327 4.9491-2.8834-3.2922-3.2708z" fill="url(#c)"/><path d="m23.8421 15.7507-3.2923 3.2708 3.2923 3.2708 5.6808-3.2708z" fill="url(#d)"/><g fill="#fff"><path d="m85.6639 23.7994c-.4519 0-.8822-.0861-1.2696-.2582-.3873-.1722-.7101-.4304-.9683-.7962h-.0861c.0431.4089.0861.7962.0861 1.1835v2.9265h-1.0759v-10.2857h.8822l.1507.9683h.043c.2797-.3873.6025-.6671.9683-.8392s.7962-.2582 1.2696-.2582c.9468 0 1.6569.3228 2.1733.9683.5165.6455.7747 1.5493.7747 2.7113s-.2582 2.0657-.7747 2.7113c-.5379.6455-1.2695.9683-2.1733.9683zm-.1722-6.4339c-.7316 0-1.248.1936-1.5708.6025-.3228.4088-.4949 1.0328-.4949 1.9151v.2367c0 .9898.1721 1.6999.4949 2.1303s.8607.6455 1.5924.6455c.6025 0 1.0974-.2582 1.4417-.7531s.5164-1.1835.5164-2.0442c0-.8823-.1721-1.5709-.5164-2.0443-.3443-.4518-.8177-.6885-1.4633-.6885z"/><path d="m91.0867 23.6699h-1.076v-10.0705h1.076z"/><path d="m97.2621 23.669-.2152-1.0113h-.0431c-.3442.4519-.71.7531-1.0543.9037-.3443.1507-.7962.2367-1.3127.2367-.7101 0-1.248-.1721-1.6568-.5379-.4089-.3658-.6026-.8823-.6026-1.5493 0-1.4417 1.1405-2.1734 3.4429-2.2594l1.2051-.0431v-.4303c0-.5595-.1291-.9683-.3658-1.2266-.2367-.2582-.6241-.3873-1.1405-.3873-.581 0-1.2696.1722-2.0012.538l-.3228-.8177c.3443-.1937.7317-.3443 1.1405-.4519s.8392-.1722 1.2481-.1722c.8392 0 1.4632.1937 1.872.5595.4089.3658.6025.9683.6025 1.8075v4.8416zm-2.4316-.7531c.6671 0 1.1835-.1937 1.5708-.5595.3874-.3658.581-.8822.581-1.5493v-.6455l-1.0759.043c-.8607.0215-1.4632.1722-1.8505.4089-.3874.2367-.5595.6025-.5595 1.0974 0 .3873.1076.6886.3443.8822.2367.2152.5595.3228.9898.3228z"/><path d="m98.6826 16.5681h1.1405l1.5489 4.0454c.345.9253.56 1.5924.624 2.0012h.043c.065-.2152.173-.6025.345-1.1189.172-.538.774-2.1734 1.764-4.9062h1.162l-3.055 8.0693c-.302.7962-.646 1.3557-1.055 1.7s-.904.4949-1.4845.4949c-.3228 0-.6456-.043-.9683-.1076v-.8607c.2367.043.4949.0861.7961.0861.7317 0 1.2697-.4089 1.5707-1.2481l.387-1.0114z"/><path d="m65.7591 17.2362c.3443.2797 1.0544.8822 1.0544 2.0012 0 1.0974-.624 1.6138-1.248 2.1088-.1937.1936-.4089.4088-.4089.7316s.2152.4949.3874.6455l.5379.4089c.6456.5594 1.2481 1.0544 1.2481 2.0872 0 1.3987-1.3557 2.7974-3.8948 2.7974-2.1518 0-3.1847-1.0329-3.1847-2.1303 0-.538.2582-1.2911 1.1404-1.8075.9253-.5595 2.1734-.6456 2.8404-.6886-.2151-.2582-.4518-.538-.4518-1.0114 0-.2582.0645-.4088.1506-.581-.1721.0216-.3228.0216-.4734.0216-1.5708 0-2.4531-1.162-2.4531-2.324 0-.6886.3013-1.4417.9468-1.9797.8392-.6885 1.8506-.8177 2.6468-.8177h3.0555l-.9468.538zm-1.0543 6.5846c-.1292-.0216-.1937-.0216-.3443-.0216-.1291 0-.9253.0216-1.5494.2367-.3227.1076-1.2695.4734-1.2695 1.5278s1.0329 1.8076 2.6037 1.8076c1.4202 0 2.1733-.6886 2.1733-1.5924 0-.7531-.4734-1.162-1.6138-1.9581zm.4303-2.8189c.3443-.3443.3658-.8177.3658-1.0759 0-1.0759-.6455-2.7328-1.8721-2.7328-.3873 0-.7961.1936-1.0328.4949-.2583.3012-.3228.7101-.3228 1.0974 0 .9898.581 2.6467 1.8506 2.6467.3873-.0215.7746-.1936 1.0113-.4303z"/><path d="m56.4207 23.5839c-2.3455 0-3.615-1.8291-3.615-3.486 0-1.9366 1.5923-3.5935 3.8302-3.5935 2.1733 0 3.529 1.6999 3.529 3.4859.0215 1.743-1.3341 3.5936-3.7442 3.5936zm1.8506-1.205c.3658-.4734.4519-1.076.4519-1.6354 0-1.3126-.6241-3.7872-2.4531-3.7872-.4949 0-.9683.1936-1.3341.4949-.581.5164-.6886 1.162-.6886 1.8075 0 1.4633.7316 3.8733 2.5176 3.8733.581 0 1.162-.2797 1.5063-.7531z"/><path d="m48.3943 23.5839c-2.3454 0-3.615-1.8291-3.615-3.486 0-1.9366 1.5923-3.5935 3.8302-3.5935 2.1734 0 3.529 1.6999 3.529 3.4859.0215 1.743-1.3341 3.5936-3.7442 3.5936zm1.8506-1.205c.3658-.4734.4519-1.076.4519-1.6354 0-1.3126-.624-3.7872-2.4531-3.7872-.4949 0-.9683.1936-1.3341.4949-.581.5164-.6886 1.162-.6886 1.8075 0 1.4633.7316 3.8733 2.5176 3.8733.581 0 1.162-.2797 1.5063-.7531z"/><path d="m43.6602 23.3468-2.1303.4949c-.8608.1292-1.6354.2583-2.4531.2583-4.11 0-5.6808-3.0126-5.6808-5.3796 0-2.8834 2.2164-5.5732 6.0036-5.5732.7961 0 1.5708.1291 2.2809.3228 1.1189.3228 1.6354.6886 1.9581.9253l-1.2265 1.1835-.5164.1291.3658-.6025c-.5165-.4949-1.4202-1.3987-3.1847-1.3987-2.3455 0-4.1315 1.786-4.1315 4.3897 0 2.7974 2.0227 5.4226 5.272 5.4226.9468 0 1.4417-.1937 1.8936-.3658v-2.4316l-2.2379.1291 1.1835-.6455h3.1631l-.3873.3658c-.1076.0861-.1291.1291-.1506.2367-.0215.1291-.0215.5595-.0215.7101z"/><path d="m70.4718 22.9173c-.495-.0431-.6025-.1292-.6025-.7101v-.1722-8.263c0-.0215 0-.0645 0-.086.0645-.5165.2151-.6026.667-.8823h-2.1088l-1.1189.538h1.1405v8.6933.4949c0 .3013-.0646.3443-.4089.7962h2.6252l.5595-.3228c-.2582-.043-.4949-.0645-.7531-.086z"/><path d="m76.5182 23.046c-.1721.0861-.3227.1936-.4949.2582-.4949.2152-.9898.2797-1.4417.2797-.4734 0-1.205-.0215-1.9581-.581-1.0544-.7316-1.5063-2.0011-1.5063-3.1201 0-2.2809 1.8721-3.4214 3.3783-3.4214.538 0 1.0759.1291 1.5278.4089.7316.4949.9253 1.1189 1.0329 1.4632l-3.4644 1.4417-1.1405.0861c.3658 1.8721 1.6354 2.9695 3.0556 2.9695.7531 0 1.2911-.2582 1.8075-.5164zm-1.3771-4.3897c.2797-.1076.4304-.1937.4304-.4089 0-.581-.6671-1.2695-1.4633-1.2695-.6025 0-1.6999.4518-1.6999 2.0442 0 .2582.0215.5164.043.7746z"/><path d="m77.9602 16.5925v.9683h-.1291v-.9683h-.3228v-.1076h.7531v.1076z"/><path d="m79.2727 17.5608v-.9899l-.3012.9899h-.0861l-.3012-.9899v.9899h-.1076v-1.0759h.1936l.2798.8607.2797-.8607h.1937v1.0759z"/><path d="m36.3659 10.242h-.7316c0-.1076-.0645-.38729-.2152-.86069h-1.0759c-.1506.4734-.2152.75309-.2152.86069h-.6885c0-.0645.1721-.55944.5379-1.48472s.538-1.44172.538-1.52779h.8822c0 .08607.1722.58099.4949 1.50627.3013.92529.4734 1.42024.4734 1.50624zm-1.0759-1.31257c-.2582-.79617-.3873-1.22654-.3873-1.29109h-.043c0 .06455-.1292.49492-.4089 1.29109z"/><path d="m39.3354 10.2421h-.581c0-.0646-.2151-.38736-.6455-1.01138-.4519-.64555-.6886-1.07591-.7531-1.31261h-.0431c.0431.34429.0646.64554.0646.92528 0 .38733 0 .83921.043 1.39871h-.5595c.0216-.47343.0431-1.01138.0431-1.57086 0-.55947-.0215-1.03287-.0431-1.44171h.6886c0 .08607.1937.40884.581.96831.4089.60251.6456 1.01136.6886 1.22654h.043c-.043-.34429-.0645-.64555-.0645-.92528 0-.40885-.0215-.83921-.0431-1.29109h.581c-.0215.38732-.043.86072-.043 1.44172.0215.6025.0215 1.11894.043 1.59237z"/><path d="m42.6925 8.62817c0 .43037-.1506.81769-.4304 1.14047-.2797.32276-.667.49496-1.1835.49496-.2367 0-.5379 0-.9468-.0216.0216-.47336.0216-.9898.0216-1.57079 0-.55947 0-1.03287-.0216-1.44172h.4089.3012.2583c.5594 0 .9683.12911 1.205.40885.2582.25822.3873.60251.3873.98983zm-.6455.10759c0-.30125-.0861-.53795-.2583-.75313-.1721-.19367-.4303-.30126-.7961-.30126-.0646 0-.1507 0-.2798.02152.0215.30126.0215.62403.0215.96832 0 .36581 0 .73162.0216 1.09743.1076.02151.1936.02151.3012.02151.3228 0 .581-.10759.7316-.30125.1937-.21518.2583-.4734.2583-.75314z"/><path d="m45.7694 10.242h-.6885c-.1722-.53792-.3228-.88221-.4089-1.01132s-.2582-.19366-.4519-.19366c-.086 0-.1721 0-.2582 0 0 .38733 0 .79617.0215 1.20498h-.6455c.0215-.47336.0215-.9898.0215-1.57079 0-.55947 0-1.03287-.0215-1.44172h.4088.2798.4088c.7101 0 1.0544.2367 1.0544.73162 0 .38733-.1937.64555-.6025.79617v.04304c.1506.04304.3013.17214.4088.36581.1292.17214.2798.53795.4734 1.07587zm-.8607-2.13026c0-.30126-.1936-.45188-.6025-.45188-.1506 0-.2797.02151-.3873.04303.0215.2367.0215.55947.0215.92528h.2152c.5164 0 .7531-.17214.7531-.51643z"/><path d="m49.0832 8.67134c0 .4734-.1506.86073-.4304 1.1835-.2797.30126-.6455.47336-1.0759.47336-.4088 0-.7531-.1506-1.0113-.43032-.2798-.27974-.4089-.64554-.4089-1.09743 0-.4734.1507-.86072.4304-1.1835.2797-.30125.6455-.4734 1.0759-.4734.4089 0 .7531.15063 1.0114.43037.2797.30125.4088.66706.4088 1.09742zm-.624.06456c0-.32277-.0861-.58099-.2367-.77466-.1722-.19366-.3658-.30125-.6025-.30125-.2152 0-.4089.10759-.581.30125-.1506.19367-.2367.45189-.2367.77466s.0861.58099.2582.77465c.1721.19367.3658.30126.6025.30126.2152 0 .4089-.10759.581-.30126.1291-.21518.2152-.45188.2152-.77465z"/><path d="m50.396 10.242h-.6455c.0215-.47336.0215-1.01132.0215-1.57079s0-1.03287-.0215-1.44172h.6455c-.0215.38733-.0215.86073-.0215 1.44172s0 1.09743.0215 1.57079z"/><path d="m53.7526 8.62817c0 .43037-.1507.81769-.4304 1.14047-.2797.32276-.6671.49496-1.1835.49496-.2367 0-.538 0-.9468-.0216.0215-.47336.0215-.9898.0215-1.57079 0-.55947 0-1.03287-.0215-1.44172h.4088.3013.2582c.5595 0 .9683.12911 1.205.40885.2582.25822.3874.60251.3874.98983zm-.6456.10759c0-.30125-.0861-.53795-.2582-.75313-.1721-.19367-.4304-.30126-.7962-.30126-.0645 0-.1506 0-.2797.02152.0215.30126.0215.62403.0215.96832 0 .36581 0 .73162.0215 1.09743.1076.02151.1937.02151.3013.02151.3227 0 .581-.10759.7316-.30125.1937-.21518.2582-.4734.2582-.75314z"/><path d="m58.1853 10.242h-.7317c0-.1076-.0645-.38729-.2151-.86069h-1.0759c-.1507.4734-.2152.75309-.2152.86069h-.6886c0-.0645.1721-.55944.5379-1.48472.3659-.92528.538-1.44172.538-1.52779h.8822c0 .08607.1722.58099.495 1.50627.3227.92529.4734 1.42024.4734 1.50624zm-1.0544-1.31257c-.2582-.79617-.3874-1.22654-.3874-1.29109h-.043c0 .06455-.1291.49492-.4088 1.29109z"/><path d="m60.897 8.02566c0 .36581-.1291.64555-.4088.81769-.2798.17215-.6026.25822-1.0114.25822-.0646 0-.1291 0-.1506 0 0 .27974 0 .66707.0215 1.14043h-.6456c.0216-.45185.0216-.96828.0216-1.57079 0-.55947 0-1.03287-.0216-1.44172h.4089.3228.4303c.3013 0 .538.06456.7317.19367.1936.12911.3012.32277.3012.6025zm-.6025.1076c0-.32278-.2152-.49492-.6671-.49492-.1076 0-.2151.02152-.3443.04303.0216.30126.0216.62403.0216.98984h.1291c.581 0 .8607-.17215.8607-.53795z"/><path d="m63.6509 8.02566c0 .36581-.1291.64555-.4088.81769-.2798.17215-.6025.25822-1.0114.25822-.0645 0-.1291 0-.1506 0 0 .27974 0 .66707.0215 1.14043h-.6455c.0215-.45185.0215-.96828.0215-1.57079 0-.55947 0-1.03287-.0215-1.44172h.4088.3228.4303c.3013 0 .538.06456.7317.19367.2151.12911.3012.32277.3012.6025zm-.581.1076c0-.32278-.2152-.49492-.667-.49492-.1076 0-.2152.02152-.3443.04303.0215.30126.0215.62403.0215.98984h.1291c.581 0 .8607-.17215.8607-.53795z"/><path d="m68.1911 8.67134c0 .4734-.1506.86073-.4303 1.1835-.2798.30126-.6456.47336-1.076.47336-.4088 0-.7531-.1506-1.0113-.43032-.2797-.27974-.4089-.64554-.4089-1.09743 0-.4734.1507-.86072.4304-1.1835.2797-.30125.6456-.4734 1.0759-.4734.4089 0 .7532.15063 1.0114.43037.2797.30125.4088.66706.4088 1.09742zm-.6455.06456c0-.32277-.0861-.58099-.2367-.77466-.1722-.19366-.3658-.30125-.6025-.30125-.2152 0-.4089.10759-.581.30125-.1507.19367-.2367.45189-.2367.77466s.086.58099.2582.77465c.1721.19367.3658.30126.6025.30126.2152 0 .4088-.10759.581-.30126.1506-.21518.2152-.45188.2152-.77465z"/><path d="m71.333 10.2421h-.581c0-.0646-.2152-.38736-.6456-1.01138-.4518-.64555-.6885-1.07591-.7531-1.31261h-.043c.043.34429.0645.64554.0645.92528 0 .38733 0 .83921.0431 1.39871h-.5595c.0215-.47343.043-1.01138.043-1.57086 0-.55947-.0215-1.03287-.043-1.44171h.6886c0 .08607.1936.40884.581.96831.4088.60251.6455 1.01136.6886 1.22654h.043c-.0431-.34429-.0646-.64555-.0646-.92528 0-.40885 0-.83921-.043-1.29109h.581c-.0215.38732-.0431.86072-.0431 1.44172 0 .6025.0216 1.11894.0431 1.59237z"/></g></svg>