<svg width="282" height="270" viewBox="0 0 282 270" fill="none" xmlns="http://www.w3.org/2000/svg">
<path fill-rule="evenodd" clip-rule="evenodd" d="M118.574 18.1625H234.887C247.45 18.1625 259.456 23.2361 268.275 32.1978C277.086 41.1525 282 53.2537 282 65.8287V269.492H42.7949V95.1711L118.574 18.1625ZM129.467 44.1629L68.7953 105.818V243.492H256V65.8287C256 60.0157 253.725 54.4821 249.742 50.4344C245.766 46.3939 240.418 44.1629 234.887 44.1629H129.467Z" fill="#00F7B1"/>
<path fill-rule="evenodd" clip-rule="evenodd" d="M35.9498 32.12C28.9149 28.5455 21.154 26.7352 13.3103 26.8291L0.311 26.9846L0 0.986026L12.9993 0.830526C25.0554 0.686309 36.9625 3.47035 47.7277 8.94024C58.4918 14.4096 67.7939 22.4011 74.8736 32.2326L82.4702 42.7823L61.3709 57.9757L53.7742 47.426C49.1013 40.9367 42.9859 35.6951 35.9498 32.12Z" fill="#00F7B1"/>
<path d="M217.831 65.8295H158.134C148.714 65.8295 141.077 73.5897 141.077 83.1625C141.077 92.7353 148.714 100.496 158.134 100.496H217.831C227.251 100.496 234.887 92.7353 234.887 83.1625C234.887 73.5897 227.251 65.8295 217.831 65.8295Z" fill="#00F7B1"/>
</svg>
