<svg fill="none" height="24" viewBox="0 0 24 24" width="24" xmlns="http://www.w3.org/2000/svg" xmlns:xlink="http://www.w3.org/1999/xlink"><linearGradient id="a" gradientUnits="userSpaceOnUse" x1="7.52313" x2="28.335" y1="-3.83865" y2="13.7036"><stop offset="0" stop-color="#28e2d7"/><stop offset=".658854" stop-color="#00a1f1"/></linearGradient><clipPath id="b"><rect height="24" rx="12" width="24"/></clipPath><g clip-path="url(#b)"><rect fill="url(#a)" height="24" rx="12" width="24"/></g><g clip-rule="evenodd" fill="#fff" fill-rule="evenodd"><path d="m6.95856 14.7399c.61375-.4737 1.44619-.7399 2.31417-.7399h5.45457c.868 0 1.7004.2662 2.3141.7399.6138.4738.9586 1.1164.9586 1.7864v1.0526c0 .2326-.2442.4211-.5455.4211-.3012 0-.5454-.1885-.5454-.4211v-1.0526c0-.4467-.2299-.875-.639-1.1909-.4092-.3159-.9642-.4933-1.5428-.4933h-5.45457c-.57866 0-1.13361.1774-1.54278.4933s-.63904.7442-.63904 1.1909v1.0526c0 .2326-.24421.4211-.54546.4211-.30124 0-.54545-.1885-.54545-.4211v-1.0526c0-.67.3448-1.3126.95856-1.7864z"/><path d="m12 7c-1.1046 0-2 .89543-2 2 0 1.1046.8954 2 2 2s2-.8954 2-2c0-1.10457-.8954-2-2-2zm-3 2c0-1.65685 1.3431-3 3-3s3 1.34315 3 3c0 1.6569-1.3431 3-3 3s-3-1.3431-3-3z"/></g></svg>