<svg width="19" height="24" viewBox="0 0 19 24" fill="none" xmlns="http://www.w3.org/2000/svg">
<path fill-rule="evenodd" clip-rule="evenodd" d="M9.71237 0.720379L9.00088 1.42308L8.2894 0.720379L9.00088 0L9.71237 0.720379ZM18.0009 14.4155C17.9989 12.9524 17.4123 11.3585 16.6389 9.86483C15.8529 8.34684 14.8163 6.82468 13.7977 5.48136C12.7764 4.13456 11.7576 2.94718 10.9952 2.09746C10.6135 1.67204 10.2949 1.32989 10.0708 1.09319C9.95873 0.97481 9.87022 0.882716 9.80919 0.819677C9.77867 0.788154 9.75502 0.763889 9.73872 0.747226L9.71984 0.727974L9.71315 0.72117C9.71298 0.721003 9.71237 0.720379 9.00088 1.42308C8.2894 0.720379 8.28956 0.720212 8.2894 0.720379L8.2871 0.722703L8.28192 0.727974L8.26304 0.747226C8.24675 0.763889 8.22309 0.788154 8.19258 0.819677C8.13155 0.882716 8.04303 0.97481 7.93095 1.09319C7.70686 1.32989 7.38823 1.67204 7.00655 2.09746C6.24418 2.94718 5.22534 4.13456 4.20406 5.48136C3.18543 6.82468 2.14888 8.34684 1.36287 9.86483C0.589439 11.3585 0.00292029 12.9524 0.000886822 14.4155C-0.0158764 15.6017 0.205164 16.7794 0.65099 17.8789C1.09773 18.9806 1.7611 19.9815 2.60177 20.8222C3.44244 21.6629 4.44332 22.3262 5.54508 22.773C6.64222 23.2178 7.81718 23.4389 9.00088 23.4232C10.1846 23.4389 11.3595 23.2178 12.4567 22.773C13.5584 22.3262 14.5593 21.6629 15.4 20.8222C16.2407 19.9815 16.904 18.9806 17.3508 17.8789C17.7966 16.7794 18.0176 15.6018 18.0009 14.4155ZM1.00088 14.4231L2.00077 14.438C1.98699 15.3591 2.15826 16.2736 2.50442 17.1273C2.85058 17.9811 3.36459 18.7566 4.01598 19.408C4.66738 20.0594 5.44291 20.5734 6.29661 20.9195C7.15031 21.2657 8.06482 21.437 8.98593 21.4232L9.00088 21.423L9.01583 21.4232C9.93694 21.437 10.8514 21.2657 11.7052 20.9195C12.5589 20.5734 13.3344 20.0594 13.9858 19.408C14.6372 18.7566 15.1512 17.9811 15.4973 17.1273C15.8435 16.2736 16.0148 15.3591 16.001 14.438L16.0009 14.4306V14.4231C16.0009 13.4383 15.5881 12.1851 14.8629 10.7845C14.1489 9.40556 13.1854 7.98398 12.2041 6.6898C11.2253 5.3991 10.2442 4.25523 9.50655 3.43308C9.32094 3.2262 9.15106 3.04004 9.00088 2.8774C8.8507 3.04004 8.68082 3.2262 8.49521 3.43308C7.75758 4.25523 6.77643 5.3991 5.7977 6.6898C4.81633 7.98398 3.85289 9.40556 3.1389 10.7845C2.41367 12.1851 2.00088 13.4383 2.00088 14.4231H1.00088Z" fill="white"/>
<path fill-rule="evenodd" clip-rule="evenodd" d="M7.00085 13.4231V14.4231C7.00085 14.9535 7.21157 15.4622 7.58664 15.8373C7.96171 16.2124 8.47042 16.4231 9.00085 16.4231H10.0009V18.4231H9.00085C7.93999 18.4231 6.92257 18.0017 6.17243 17.2515C5.42228 16.5014 5.00085 15.484 5.00085 14.4231V13.4231H7.00085Z" fill="white"/>
</svg>
