<svg width="24" height="24" viewBox="0 0 24 24" fill="none" xmlns="http://www.w3.org/2000/svg">
<path fill-rule="evenodd" clip-rule="evenodd" d="M11.8334 10C10.7288 10 9.83337 10.8954 9.83337 12C9.83337 13.1046 10.7288 14 11.8334 14C12.9379 14 13.8334 13.1046 13.8334 12C13.8334 10.8954 12.9379 10 11.8334 10ZM7.83337 12C7.83337 9.79086 9.62423 8 11.8334 8C14.0425 8 15.8334 9.79086 15.8334 12C15.8334 14.2091 14.0425 16 11.8334 16C9.62423 16 7.83337 14.2091 7.83337 12Z" fill="white"/>
<path fill-rule="evenodd" clip-rule="evenodd" d="M8.95062 0H14.7161L15.1716 3.64311C15.9707 3.96441 16.7195 4.39893 17.395 4.9333L20.784 3.5035L23.6667 8.4964L20.739 10.7132C20.8009 11.1384 20.8325 11.5677 20.8334 11.9979L19.8334 12L20.8334 12.0021C20.8325 12.4323 20.8009 12.8616 20.739 13.2868L23.6667 15.5036L20.784 20.4965L17.395 19.0667C16.7195 19.6011 15.9707 20.0356 15.1716 20.3569L14.7161 24H8.95062L8.49509 20.3569C7.696 20.0356 6.94721 19.6011 6.27177 19.0667L2.88274 20.4965L0 15.5036L2.927 13.2873C2.80222 12.4337 2.80222 11.5663 2.927 10.7127L0 8.49641L2.88274 3.5035L6.27176 4.9333C6.94721 4.39893 7.696 3.96441 8.49509 3.64311L8.95062 0ZM18.8334 12C18.8322 11.4962 18.777 10.9939 18.6687 10.5019L18.5311 9.87638L21.052 7.9676L19.9347 6.0325L17.0137 7.26485L16.5406 6.83111C15.796 6.14851 14.9123 5.63547 13.9503 5.32734L13.3423 5.13259L12.9506 2H10.7161L10.3244 5.13259L9.71641 5.32734C8.75443 5.63547 7.87071 6.14851 7.12614 6.83111L6.65302 7.26485L3.732 6.0325L2.61474 7.9676L5.13676 9.87723L4.99758 10.5038C4.77869 11.4893 4.77869 12.5107 4.99758 13.4962L5.13676 14.1228L2.61474 16.0324L3.732 17.9675L6.65302 16.7351L7.12614 17.1689C7.87071 17.8515 8.75443 18.3645 9.71641 18.6727L10.3244 18.8674L10.7161 22H12.9506L13.3423 18.8674L13.9503 18.6727C14.9123 18.3645 15.796 17.8515 16.5406 17.1689L17.0137 16.7351L19.9347 17.9675L21.052 16.0324L18.5311 14.1236L18.6687 13.4981C18.777 13.0061 18.8322 12.5038 18.8334 12Z" fill="white"/>
</svg>
