<svg width="24" height="24" viewBox="0 0 24 24" fill="none" xmlns="http://www.w3.org/2000/svg">
<path fill-rule="evenodd" clip-rule="evenodd" d="M5 0H19V7H17V2H7V10H5V0Z" fill="white"/>
<path fill-rule="evenodd" clip-rule="evenodd" d="M9 22H15V24H9V22Z" fill="white"/>
<path fill-rule="evenodd" clip-rule="evenodd" d="M0 11H11V24H0V11ZM2 13V22H9V13H2Z" fill="white"/>
<path fill-rule="evenodd" clip-rule="evenodd" d="M13 8H24V24H13V8ZM15 10V22H22V10H15Z" fill="white"/>
<path fill-rule="evenodd" clip-rule="evenodd" d="M17 12H20V14H17V12Z" fill="white"/>
<path fill-rule="evenodd" clip-rule="evenodd" d="M17 15H20V17H17V15Z" fill="white"/>
<path fill-rule="evenodd" clip-rule="evenodd" d="M17 18H20V20H17V18Z" fill="white"/>
<path fill-rule="evenodd" clip-rule="evenodd" d="M4 18H7V20H4V18Z" fill="white"/>
<path fill-rule="evenodd" clip-rule="evenodd" d="M4 15H7V17H4V15Z" fill="white"/>
</svg>
