<svg fill="none" height="30" viewBox="0 0 115 30" width="115" xmlns="http://www.w3.org/2000/svg" xmlns:xlink="http://www.w3.org/1999/xlink"><linearGradient id="a" gradientUnits="userSpaceOnUse" x1="74.4944" x2="97.8437" y1="-4.79831" y2="33.9078"><stop offset="0" stop-color="#28e2d7"/><stop offset=".658854" stop-color="#00a1f1"/></linearGradient><path d="m75.8272 14.3817h6.9154v11.9542c-1.5757 1.1908-3.3702 2.1068-5.4273 2.7023-2.0571.6412-4.1143.9618-6.1276.9618-2.8887 0-5.4711-.6412-7.7908-1.9237-2.3198-1.2824-4.1143-3.0687-5.4273-5.3587-1.3131-2.2901-1.9696-4.855-1.9696-7.7405s.6565-5.45038 1.9696-7.74046c1.313-2.29007 3.1513-4.07633 5.4711-5.35878 2.2759-1.236639 4.902-1.87786 7.8783-1.87786 2.5823 0 4.9021.458015 6.9154 1.37405 2.0571.91603 3.7641 2.19847 5.1209 3.89313l-4.9458 4.71755c-1.8821-2.15267-4.1143-3.2061-6.6966-3.2061-2.3635 0-4.2893.73282-5.6899 2.24427-1.4444 1.5115-2.1884 3.4809-2.1884 6 0 1.6031.3501 3.0229.9629 4.2595.6565 1.2367 1.5756 2.2443 2.7574 2.9313 1.1817.6871 2.5386 1.0535 4.0705 1.0535 1.4881 0 2.8887-.3206 4.2018-.9619zm16.0192 13.6946c-2.3197-1.2824-4.158-3.0687-5.471-5.3587-1.3131-2.2901-1.9696-4.855-1.9696-7.6947s.6565-5.40458 1.9696-7.69466c1.313-2.29007 3.1513-4.07633 5.471-5.35877 2.3198-1.328249 4.9459-1.96947 7.8346-1.96947 2.933 0 5.515.641221 7.878 1.92366 2.32 1.28245 4.158 3.06871 5.471 5.35878 1.313 2.29008 1.97 4.85496 1.97 7.69466s-.657 5.4504-1.97 7.6947c-1.313 2.29-3.151 4.0763-5.471 5.3587-2.319 1.2825-4.945 1.9237-7.878 1.9237-2.8887.0458-5.5148-.5954-7.8346-1.8779zm11.6426-5.8626c1.138-.687 2.013-1.6488 2.67-2.9313.656-1.2366.963-2.7022.963-4.3053s-.35-3.0687-.963-4.3053c-.657-1.23669-1.532-2.19852-2.67-2.88554s-2.407-1.00763-3.7642-1.00763c-1.4006 0-2.6699.32061-3.7641 1.00763-1.138.68702-2.0134 1.64885-2.6699 2.88554-.6565 1.2366-.9629 2.7022-.9629 4.3053s.3501 3.0687.9629 4.3053c.6565 1.2367 1.5319 2.1985 2.6699 2.9313 1.138.6871 2.4073 1.0077 3.7641 1.0077 1.3572.0458 2.6262-.3206 3.7642-1.0077z" fill="url(#a)"/><g fill="#fff"><path d="m23.9955 9.58626c1.1349 1.15424 1.7294 2.85804 1.7294 5.11144v9.0687h-2.8103v-8.7389c0-1.5389-.3243-2.6931-1.0268-3.4626-.7026-.7695-1.6754-1.1542-2.9725-1.1542-1.4051 0-2.54.4397-3.4047 1.374-.8107.8794-1.243 2.1985-1.243 3.8474v8.0794h-2.8103v-8.684c0-1.5389-.3243-2.6931-1.0268-3.4626-.70261-.7695-1.6754-1.1542-2.97245-1.1542-1.40514 0-2.54006.4397-3.40476 1.374-.81066.8794-1.24301 2.1985-1.24301 3.8474v8.0794h-2.81028v-15.66417h2.70219v2.36337c.54044-.82444 1.29705-1.42902 2.2158-1.86871.91875-.4397 1.94558-.65954 3.13454-.65954 1.18897 0 2.26987.21984 3.18857.76946.9188.49466 1.6754 1.20916 2.1618 2.14349.5945-.93433 1.4051-1.64883 2.4319-2.14349 1.0269-.49465 2.2158-.76946 3.5129-.76946 1.9456 0 3.5128.54961 4.6478 1.70381z"/><path d="m29.5079 4.47483c-.3783-.32977-.5404-.76946-.5404-1.31908 0-.49466.1621-.93435.5404-1.31908.3783-.38474.8107-.54962 1.3511-.54962.5405 0 .9728.16488 1.3511.49465.3783.32978.5405.76947.5405 1.26413 0 .54962-.1622.98931-.5405 1.37404-.3783.38474-.8106.54962-1.3511.54962-.5404.05496-1.0268-.16488-1.3511-.49466zm-.054 3.57252h2.8103v15.71905h-2.8103z"/><path d="m49.1259 9.58626c1.1349 1.15424 1.7294 2.85804 1.7294 5.11144v9.0687h-2.8103v-8.7389c0-1.5389-.3783-2.6931-1.0809-3.4626s-1.7294-1.1542-3.0805-1.1542c-1.5132 0-2.7022.4397-3.5669 1.374-.8647.8794-1.297 2.1985-1.297 3.8474v8.0794h-2.8103v-15.66417h2.7022v2.36337c.5404-.82444 1.3511-1.42902 2.2698-1.86871.9728-.4397 2.0537-.65954 3.2967-.65954 1.9456 0 3.5128.54961 4.6478 1.70381z"/></g></svg>