<svg width="15" height="15" viewBox="0 0 15 15" fill="none" xmlns="http://www.w3.org/2000/svg">
<path fill-rule="evenodd" clip-rule="evenodd" d="M7.08228 1.68646C3.95157 1.68646 1.41363 4.2244 1.41363 7.3551C1.41363 10.4858 3.95157 13.0238 7.08228 13.0238C10.213 13.0238 12.7509 10.4858 12.7509 7.3551C12.7509 4.2244 10.213 1.68646 7.08228 1.68646ZM0.153931 7.3551C0.153931 3.52868 3.25586 0.426758 7.08228 0.426758C10.9087 0.426758 14.0106 3.52868 14.0106 7.3551C14.0106 11.1815 10.9087 14.2835 7.08228 14.2835C3.25586 14.2835 0.153931 11.1815 0.153931 7.3551Z" fill="white"/>
<path fill-rule="evenodd" clip-rule="evenodd" d="M0 7.35514C0 3.44369 3.17086 0.272827 7.08231 0.272827C10.9938 0.272827 14.1646 3.44369 14.1646 7.35514C14.1646 11.2666 10.9938 14.4374 7.08231 14.4374C3.17086 14.4374 0 11.2666 0 7.35514ZM7.08231 0.580754C3.34092 0.580754 0.307927 3.61375 0.307927 7.35514C0.307927 11.0965 3.34092 14.1295 7.08231 14.1295C10.8237 14.1295 13.8567 11.0965 13.8567 7.35514C13.8567 3.61375 10.8237 0.580754 7.08231 0.580754ZM7.08231 1.84045C4.03663 1.84045 1.56763 4.30946 1.56763 7.35514C1.56763 10.4008 4.03663 12.8698 7.08231 12.8698C10.128 12.8698 12.597 10.4008 12.597 7.35514C12.597 4.30946 10.128 1.84045 7.08231 1.84045ZM1.2597 7.35514C1.2597 4.1394 3.86657 1.53253 7.08231 1.53253C10.298 1.53253 12.9049 4.1394 12.9049 7.35514C12.9049 10.5709 10.298 13.1777 7.08231 13.1777C3.86657 13.1777 1.2597 10.5709 1.2597 7.35514Z" fill="white"/>
<path fill-rule="evenodd" clip-rule="evenodd" d="M7.03391 2.94623C7.35501 2.94623 7.61531 3.22822 7.61531 3.57608V6.72533H9.65021C9.97131 6.72533 10.2316 7.00732 10.2316 7.35518C10.2316 7.70303 9.97131 7.98503 9.65021 7.98503H7.03391C6.71282 7.98503 6.45251 7.70303 6.45251 7.35518V3.57608C6.45251 3.22822 6.71282 2.94623 7.03391 2.94623Z" fill="white"/>
<path fill-rule="evenodd" clip-rule="evenodd" d="M6.29858 3.57602C6.29858 3.15497 6.61645 2.79221 7.03395 2.79221C7.45145 2.79221 7.76931 3.15497 7.76931 3.57602V6.5713H9.65025C10.0677 6.5713 10.3856 6.93406 10.3856 7.35512C10.3856 7.77617 10.0677 8.13893 9.65025 8.13893H7.03395C6.61645 8.13893 6.29858 7.77617 6.29858 7.35512V3.57602ZM7.03395 3.10013C6.80925 3.10013 6.60651 3.30136 6.60651 3.57602V7.35512C6.60651 7.62978 6.80925 7.831 7.03395 7.831H9.65025C9.87494 7.831 10.0777 7.62978 10.0777 7.35512C10.0777 7.08046 9.87494 6.87923 9.65025 6.87923H7.61535C7.53032 6.87923 7.46138 6.8103 7.46138 6.72527V3.57602C7.46138 3.30136 7.25864 3.10013 7.03395 3.10013Z" fill="white"/>
</svg>
