<svg width="458" height="559" viewBox="0 0 458 559" fill="none" xmlns="http://www.w3.org/2000/svg">
<path fill-rule="evenodd" clip-rule="evenodd" d="M228.682 50.8182C181.509 50.8182 136.269 69.5573 102.913 102.913C69.5573 136.269 50.8182 181.509 50.8182 228.682C50.8182 294.872 95.8043 364.915 146.036 421.426C170.557 449.011 195.156 472.081 213.652 488.265C219.311 493.216 224.381 497.508 228.682 501.072C232.983 497.508 238.053 493.216 243.711 488.265C262.208 472.081 286.807 449.011 311.327 421.426C361.559 364.915 406.545 294.872 406.545 228.682C406.545 181.509 387.806 136.269 354.45 102.913C321.095 69.5573 275.854 50.8182 228.682 50.8182ZM228.682 533.591C213.436 553.918 213.431 553.914 213.424 553.909L213.408 553.897L213.361 553.862L213.212 553.749L212.697 553.358C212.259 553.025 211.634 552.545 210.834 551.925C209.234 550.685 206.933 548.881 204.031 546.549C198.23 541.887 190.015 535.108 180.188 526.51C160.572 509.345 134.353 484.773 108.054 455.188C56.6503 397.358 0 314.946 0 228.682C0 168.032 24.0932 109.866 66.9794 66.9794C109.866 24.0932 168.032 0 228.682 0C289.332 0 347.498 24.0932 390.384 66.9794C433.27 109.866 457.364 168.032 457.364 228.682C457.364 314.946 400.713 397.358 349.309 455.188C323.011 484.773 296.792 509.345 277.175 526.51C267.349 535.108 259.133 541.887 253.332 546.549C250.431 548.881 248.13 550.685 246.53 551.925C245.729 552.545 245.104 553.025 244.666 553.358L244.152 553.749L244.003 553.862L243.956 553.897L243.939 553.909C243.933 553.914 243.927 553.918 228.682 533.591ZM228.682 533.591L243.927 553.918C234.893 560.694 222.471 560.694 213.436 553.918L228.682 533.591Z" fill="#F9F9F9"/>
<path fill-rule="evenodd" clip-rule="evenodd" d="M228.682 177.864C200.616 177.864 177.864 200.616 177.864 228.682C177.864 256.748 200.616 279.5 228.682 279.5C256.748 279.5 279.5 256.748 279.5 228.682C279.5 200.616 256.748 177.864 228.682 177.864ZM127.045 228.682C127.045 172.55 172.55 127.045 228.682 127.045C284.814 127.045 330.318 172.55 330.318 228.682C330.318 284.814 284.814 330.318 228.682 330.318C172.55 330.318 127.045 284.814 127.045 228.682Z" fill="#F9F9F9"/>
</svg>
