<svg width="14" height="15" viewBox="0 0 14 15" fill="none" xmlns="http://www.w3.org/2000/svg">
<path fill-rule="evenodd" clip-rule="evenodd" d="M3.26041 9.6795C3.71058 9.6795 4.07551 10.0444 4.07551 10.4946C4.07551 11.1431 4.33314 11.7651 4.79172 12.2237C5.25031 12.6823 5.87228 12.9399 6.52081 12.9399C6.97098 12.9399 7.33591 13.3048 7.33591 13.755C7.33591 14.2052 6.97098 14.5701 6.52081 14.5701C5.43992 14.5701 4.4033 14.1407 3.639 13.3764C2.87469 12.6121 2.44531 11.5755 2.44531 10.4946C2.44531 10.0444 2.81024 9.6795 3.26041 9.6795Z" fill="white"/>
<path fill-rule="evenodd" clip-rule="evenodd" d="M2.0127 0.961562C2.40827 0.797712 2.83224 0.713379 3.2604 0.713379C3.68856 0.713379 4.11253 0.797712 4.5081 0.961562C4.90367 1.12541 5.26309 1.36557 5.56585 1.66833C5.86861 1.97108 6.10876 2.33051 6.27261 2.72608C6.43646 3.12165 6.5208 3.54562 6.5208 3.97378C6.5208 4.64545 6.22665 5.36469 5.79332 6.08692C5.34885 6.82769 4.70044 7.66472 3.86712 8.59359C3.71255 8.76589 3.492 8.86434 3.26052 8.86438C3.02904 8.86441 2.80847 8.76602 2.65384 8.59377C1.82047 7.6654 1.172 6.8286 0.727482 6.08773C0.294032 5.36532 0 4.64587 0 3.97378C0 3.54562 0.0843327 3.12165 0.248183 2.72608C0.412033 2.33051 0.652193 1.97108 0.954949 1.66833C1.2577 1.36557 1.61713 1.12541 2.0127 0.961562ZM3.2604 2.34358C3.04632 2.34358 2.83433 2.38574 2.63655 2.46767C2.43876 2.54959 2.25905 2.66967 2.10767 2.82105C1.9563 2.97243 1.83622 3.15214 1.75429 3.34993C1.67237 3.54771 1.6302 3.7597 1.6302 3.97378C1.6302 4.20264 1.74372 4.61292 2.12537 5.249C2.39414 5.69696 2.77 6.21478 3.26024 6.80415C3.75061 6.21436 4.12658 5.69627 4.39543 5.24819C4.77719 4.61192 4.8906 4.20198 4.8906 3.97378C4.8906 3.7597 4.84843 3.54771 4.76651 3.34993C4.68458 3.15214 4.5645 2.97243 4.41312 2.82105C4.26175 2.66967 4.08203 2.54959 3.88425 2.46767C3.68646 2.38574 3.47448 2.34358 3.2604 2.34358Z" fill="white"/>
<path d="M9.78124 9.2719C10.4565 9.2719 11.0039 8.7245 11.0039 8.04925C11.0039 7.374 10.4565 6.8266 9.78124 6.8266C9.10599 6.8266 8.55859 7.374 8.55859 8.04925C8.55859 8.7245 9.10599 9.2719 9.78124 9.2719Z" fill="white"/>
<path d="M3.26041 4.78889C3.71058 4.78889 4.07551 4.42396 4.07551 3.97379C4.07551 3.52362 3.71058 3.15869 3.26041 3.15869C2.81025 3.15869 2.44531 3.52362 2.44531 3.97379C2.44531 4.42396 2.81025 4.78889 3.26041 4.78889Z" fill="white"/>
<path fill-rule="evenodd" clip-rule="evenodd" d="M6.8995 5.1675C7.6638 4.4032 8.70042 3.97382 9.78131 3.97382C10.8622 3.97382 11.8988 4.4032 12.6631 5.1675C13.4274 5.93181 13.8568 6.96843 13.8568 8.04931C13.8568 8.87427 13.4928 9.77223 12.9208 10.7017C12.3383 11.6483 11.4837 12.7168 10.3775 13.9033C10.2233 14.0687 10.0074 14.1626 9.78131 14.1626C9.55524 14.1626 9.33932 14.0687 9.18515 13.9033C8.07887 12.7168 7.22435 11.6483 6.64182 10.7017C6.06982 9.77223 5.70581 8.87427 5.70581 8.04931C5.70581 6.96843 6.13519 5.93181 6.8995 5.1675ZM9.78131 5.60402C9.13277 5.60402 8.5108 5.86164 8.05222 6.32023C7.59364 6.77881 7.33601 7.40078 7.33601 8.04931C7.33601 8.42527 7.5154 9.0108 8.0302 9.84734C8.43527 10.5056 9.01548 11.2675 9.78131 12.1352C10.5471 11.2675 11.1273 10.5056 11.5324 9.84734C12.0472 9.0108 12.2266 8.42527 12.2266 8.04931C12.2266 7.40078 11.969 6.77881 11.5104 6.32023C11.0518 5.86164 10.4298 5.60402 9.78131 5.60402Z" fill="white"/>
</svg>
