<svg width="12" height="14" viewBox="0 0 12 14" fill="none" xmlns="http://www.w3.org/2000/svg">
<path fill-rule="evenodd" clip-rule="evenodd" d="M5.90751 1.63022C4.91808 1.63022 3.96918 2.01666 3.26955 2.70454C2.56991 3.39243 2.17686 4.32539 2.17686 5.2982C2.17686 6.84652 3.16447 8.59648 4.28816 10.0528C4.83423 10.7606 5.38221 11.3608 5.79416 11.7842C5.83325 11.8244 5.87108 11.8629 5.90751 11.8998C5.94395 11.8629 5.98178 11.8244 6.02087 11.7842C6.43282 11.3608 6.98079 10.7606 7.52687 10.0528C8.65055 8.59648 9.63816 6.84652 9.63816 5.2982C9.63816 4.32539 9.24511 3.39243 8.54548 2.70454C7.84585 2.01666 6.89694 1.63022 5.90751 1.63022ZM5.90751 13.0417C5.34985 13.6449 5.34969 13.6447 5.34952 13.6446L5.34794 13.6431L5.34437 13.6399L5.33238 13.6291C5.32225 13.6199 5.30792 13.6069 5.28966 13.5901C5.25315 13.5564 5.20088 13.5078 5.13513 13.4452C5.00367 13.3202 4.81793 13.1392 4.59597 12.911C4.15297 12.4557 3.56103 11.8077 2.96719 11.0381C1.81103 9.53967 0.518799 7.41787 0.518799 5.2982C0.518799 3.89303 1.08654 2.54541 2.09712 1.55181C3.1077 0.558202 4.47834 0 5.90751 0C7.33669 0 8.70733 0.558202 9.71791 1.55181C10.7285 2.54541 11.2962 3.89303 11.2962 5.2982C11.2962 7.41787 10.004 9.53967 8.84784 11.0381C8.25399 11.8077 7.66205 12.4557 7.21906 12.911C6.9971 13.1392 6.81136 13.3202 6.6799 13.4452C6.61414 13.5078 6.56188 13.5564 6.52536 13.5901C6.5071 13.6069 6.49277 13.6199 6.48265 13.6291L6.47066 13.6399L6.46709 13.6431L6.46593 13.6442C6.46576 13.6443 6.46518 13.6449 5.90751 13.0417ZM5.90751 13.0417L6.46518 13.6449C6.14897 13.9275 5.66573 13.9272 5.34952 13.6446L5.90751 13.0417Z" fill="white"/>
<path fill-rule="evenodd" clip-rule="evenodd" d="M5.90759 4.39897C5.36096 4.39897 4.91783 4.8421 4.91783 5.38873C4.91783 5.93536 5.36096 6.3785 5.90759 6.3785C6.45422 6.3785 6.89736 5.93536 6.89736 5.38873C6.89736 4.8421 6.45422 4.39897 5.90759 4.39897ZM3.59814 5.38873C3.59814 4.11326 4.63212 3.07928 5.90759 3.07928C7.18307 3.07928 8.21704 4.11326 8.21704 5.38873C8.21704 6.66421 7.18307 7.69818 5.90759 7.69818C4.63212 7.69818 3.59814 6.66421 3.59814 5.38873Z" fill="white"/>
</svg>
