<svg width="23" height="21" viewBox="0 0 23 21" fill="none" xmlns="http://www.w3.org/2000/svg">
<path fill-rule="evenodd" clip-rule="evenodd" d="M15.0012 1.22366C15.7753 0.599071 16.8812 0 18.1579 0C18.8265 0 19.3684 0.55306 19.3684 1.23529V4.43693C19.7571 4.85999 20.1776 5.40838 20.4064 6.17647H21.7895C22.458 6.17647 23 6.72953 23 7.41176V12.3529C23 13.0352 22.458 13.5882 21.7895 13.5882H20.1716C19.6864 14.5003 18.9558 15.0928 18.1579 15.5637V19.7647C18.1579 20.4469 17.6159 21 16.9474 21H12.1053C11.4367 21 10.8948 20.4469 10.8948 19.7647V18.5294H9.68424V19.7647C9.68424 20.4469 9.14227 21 8.47371 21H3.63162C2.96306 21 2.42109 20.4469 2.42109 19.7647V16.0387C1.37006 15.142 0.723699 14.2356 0.37095 13.2097C-0.000733506 12.1288 -0.000342144 11.0167 2.29495e-05 9.97938C3.43497e-05 9.94697 4.57498e-05 9.91462 4.57498e-05 9.88235C4.57498e-05 5.86596 2.83297 3.52003 5.89498 2.47285C8.54124 1.56785 11.6486 1.50603 14.0145 2.21123C14.2788 1.87929 14.6135 1.5365 15.0012 1.22366ZM7.26319 18.5294V17.2941C7.26319 16.6119 7.80516 16.0588 8.47371 16.0588H12.1053C12.7738 16.0588 13.3158 16.6119 13.3158 17.2941V18.5294H15.7369V14.8235C15.7369 14.3556 15.9959 13.9279 16.406 13.7186C17.5415 13.1393 17.9954 12.7244 18.209 11.998C18.3626 11.4755 18.8339 11.1176 19.3684 11.1176H20.579V8.64706H19.3684C18.6999 8.64706 18.1579 8.094 18.1579 7.41176C18.1579 6.71961 17.8945 6.41933 17.3019 5.81466C17.0749 5.583 16.9474 5.2688 16.9474 4.94118V2.85033C16.7961 2.94068 16.6471 3.04517 16.5028 3.16163C16.2483 3.36697 16.0368 3.58736 15.8838 3.7814C15.7422 3.96105 15.6879 4.07076 15.6767 4.09325C15.6746 4.0975 15.674 4.09863 15.6747 4.09652C15.5677 4.42424 15.331 4.69125 15.0222 4.83277C14.7134 4.97428 14.3606 4.97738 14.0495 4.8413C12.2465 4.0528 9.22888 3.93832 6.6643 4.81539C4.12764 5.68291 2.42109 7.35169 2.42109 9.88235C2.42109 11.0411 2.43349 11.7462 2.65545 12.3917C2.8567 12.977 3.27806 13.6265 4.35793 14.4529C4.66275 14.6862 4.84214 15.0524 4.84214 15.4412V18.5294H7.26319Z" fill="#242C35"/>
</svg>
